<?xml version="1.0" encoding="UTF-8"?>
<svg width="2209px" height="1752px" viewBox="0 0 2209 1752" version="1.1" xmlns="http://www.w3.org/2000/svg" xmlns:xlink="http://www.w3.org/1999/xlink">
    <!-- Generator: Sketch 61.2 (89653) - https://sketch.com -->
    <title>shape-a</title>
    <desc>Created with Sketch.</desc>
    <g id="Page-1" stroke="none" stroke-width="1" fill="none" fill-rule="evenodd">
        <g id="shape-a" fill="#000000" fill-rule="nonzero">
            <path d="M201.2,744.12 C202.6,739.5 204.02,734.89 205.39,730.27 C206.469872,726.030473 209.854255,722.766131 214.13,721.84 C219.65,720.36 223.77,717.51 226.24,711.67 C227.77,708.05 231.36,704.14 234.94,702.79 C243.21,699.66 246.74,692.42 251.52,686.29 C255.83,680.77 259.13,674.47 263.32,668.85 C268.57,661.8 274.32,655.1 280.25,647.69 C288.05,652.82 292.74,641.69 301.58,644.54 C300.75,639.74 300.17,636.39 299.48,632.37 C301.02,631.96 303.21,630.72 305.18,631 C310.98,631.85 313.06,628.53 313.78,623.87 C314.59,618.73 314.87,613.51 315.42,607.99 C317.892273,606.251587 320.459595,604.652436 323.11,603.2 C324.739273,602.4691 326.538829,602.202627 328.31,602.43 C335.97,603.3 343.77,599.01 344.1,591.63 C344.71,577.92 353.97,571.63 363.72,565.24 C365.47,564.09 367.11,562.77 370.83,560.05 L347.61,556.05 L357.81,538.5 L362,543.2 C368.51,542.04 372.54,539.29 373.36,531.36 C373.78,527.3 378.2,522.36 382.13,520.23 C388.69,516.64 396.3,514.96 403.92,512.32 C403.51,508.71 404.99,506.04 407.58,502.62 C412.41,496.21 414.78,487.94 418.21,480.35 L413.08,475.67 C416.4,466.5 424.28,462.3 432.23,458.23 C433.88,457.38 436.69,457.33 437.29,456.09 C441.29,447.86 450.2,445.92 456.66,440.44 C455.41,435.79 454.01,431.14 458.16,426.84 C459.16,425.75 458.28,422.95 458.75,421.05 C461.02,411.89 463.88,403.42 472.4,397.35 C476.67,394.3 478.81,388.18 481.75,383.35 C483.8,379.98 485.75,377.1 490.19,382.35 C490.76,377.54 495.76,375.35 494.82,370.05 C494.63,368.99 497.82,367.05 499.77,365.96 C505.15,362.83 508.89,358.62 509.99,352.29 C510.2,351.07 511.06,349.97 511.82,348.42 L515.66,350.15 L537.82,339.23 C543.12,334.57 538.11,325.77 546.07,321.44 C546.79,324.44 547.41,327.06 548.07,329.75 C553.21,329.67 553.76,325.87 554.76,322.35 C555.97,318.07 555.76,312.97 561.57,311.28 C562.57,310.99 563.52,308.48 563.46,307.04 C563.13,299.3 567.22,296.59 574.05,293.46 C581.45,290.06 590.24,286.96 594.72,278.96 C602.53,264.96 616.72,258.21 628.27,248.44 C629.064856,247.867975 630.051106,247.627689 631.02,247.77 C639.71,249.45 645.02,242.37 651.95,239.57 C654.06,238.72 656.02,235.82 656.71,233.46 C658.86,226.11 663.26,222.67 670.71,219.93 C685.48,214.47 700.41,208.17 710.71,195.32 C718.41,185.69 730.29,181.93 738.9,173.74 C745.41,167.55 751.96,161.44 761,159.07 C761.656894,158.927024 762.237567,158.545846 762.63,158 C766.44,150.23 774.76,149.67 781.23,146.1 C788.08,142.32 794.58,137.91 801.37,134.04 C805,131.97 808.98,130.52 812.72,128.64 C816.82,126.58 820.873333,124.42 824.88,122.16 C829.46,119.58 833.88,116.67 838.52,114.21 C847.81,109.28 857.23,104.57 866.52,99.73 C867.422815,99.3156779 868.189264,98.6532716 868.73,97.82 C873.12,89.25 881.92,85.7 888.83,80 C894.89,75 901.01,70.06 907,65 C908.279547,63.9416871 909.253115,62.5607394 909.82,61 C912.6,52.15 918.26,48 927.71,50.11 C930.28,46.49 930.71,41.41 937.65,42.99 C942.47,44.09 943.75,38.14 944.65,33.54 C951.207214,31.5847273 957.112775,27.8907278 961.74,22.85 C966.21,18.18 972.74,14.27 978.74,10.55 C982.973293,8.09898235 986.675449,4.82857427 989.63,0.93 L1024.76,7.84 C1026.08055,7.93299902 1027.3877,8.16426445 1028.66,8.53 C1039.83,13.32 1039.82,13.35 1047.66,4.77 C1050.4,5.56 1053.66,6.14 1056.56,7.43 C1065.49,11.43 1065.45,11.5 1072.5,7.7 C1082.37,10.43 1091.32,14.12 1100.56,15.12 C1108.72,16 1117.18,13.73 1125.56,13.12 C1130.83,12.73 1136.01,12.19 1140.23,17.23 C1142.23,19.66 1146.13,20.84 1149.39,21.87 C1152.21209,22.6243559 1155.09201,23.1428078 1158,23.42 C1163.29,21.7 1166.79,20.51 1170.33,19.42 C1172.5,18.75 1175.33,18.91 1176.83,17.58 C1183.24,12.08 1188.69,14.84 1195.11,17.93 C1200.56,20.55 1207.05,21.01 1213.11,22.41 C1216.33,23.15 1219.57,23.87 1223.78,24.82 C1224.85919,23.3156475 1226.09255,21.9281208 1227.46,20.68 C1232.66,16.5 1235.02,17.08 1239.23,23 C1240.28467,24.6416333 1241.61408,26.0894442 1243.16,27.28 C1248.47,30.83 1248.54,30.74 1251.41,36 C1256.73,36 1262.62,35.94 1268.51,36 C1270.45,36 1273.02,35.83 1274.23,36.91 C1279.48,41.64 1284.55,40.22 1289.84,36.91 C1298.32,42.06 1306.96,45.99 1317.59,42.23 C1319.5356,43.5740572 1321.35929,45.0865454 1323.04,46.75 C1327.23,51.45 1330.54,52.3 1337.32,49.4 C1343.75,46.65 1352.39,48.84 1360.04,49.21 C1365.19,49.46 1371.43,53.21 1374.97,57.38 L1386.74,53.47 C1389.89,56.96 1392.18,61.39 1395.68,62.79 C1398.68,63.99 1403.03,61.68 1407.49,60.79 C1408.31,61.72 1409.49,63.22 1410.89,64.62 C1413.06,66.87 1415.18,67.62 1418.77,66.91 C1423.83,65.96 1429.29,66.57 1434.51,67.13 C1437.69,67.46 1440.58,68.62 1442.57,72.06 C1445.23,76.66 1449.77,77.69 1455.31,77.79 C1462.62,77.92 1470.58,76.31 1476.95,82.62 C1478.68,84.34 1482.56,83.78 1485.39,84.5 C1488.22,85.22 1492.11,85.38 1493.61,87.3 C1498.36,93.35 1504.61,93.08 1510.77,92.19 C1514.98,91.58 1517.84,91.93 1519.91,95.75 C1520.21,96.31 1520.82,97.01 1521.35,97.07 C1525.83,97.61 1530.87,96.88 1534.68,98.72 C1539.75,101.17 1543.62,99.66 1547.79,97.19 C1550.1,98.7 1551.95,100.01 1553.9,101.19 C1555.58,102.19 1557.96,104.19 1559.03,103.66 C1566.31,100.15 1571.74,106.77 1578.33,106.77 C1580.33,106.77 1582.33,108.34 1584.33,109.27 C1587.03,110.54 1589.56,112.46 1592.39,113.1 C1599.56,114.71 1606.83,116.64 1614.1,116.85 C1628.03,117.25 1640.3,123.56 1653.46,126.6 C1660.46,128.23 1667.23,131.11 1674.56,131.72 C1680.43,132.22 1686.28,133.12 1692.1,134.08 C1693.65,134.33 1695.73,135.08 1696.42,136.24 C1700.55,143.3 1708.64,144.07 1714.61,148.15 C1715.15,148.52 1716.18,148.54 1716.37,148.98 C1720.37,158.25 1729.55,160.22 1737.37,164.31 C1740.99,166.2 1743.95,168.31 1748.37,167.59 C1750.28,167.28 1752.55,168.93 1754.6,169.81 C1763.12,173.47 1771.6,177.32 1780.13,180.81 C1788.66,184.3 1797.28,187.61 1805.94,190.81 C1808.99909,192.044501 1812.22402,192.819561 1815.51,193.11 C1823.27,193.49 1829.3,197.18 1835.26,201.7 C1842.02,206.83 1849.09,211.6 1856.26,216.15 C1862.1,219.86 1868.36,222.88 1874.26,226.49 C1876.65,227.95 1878.51,230.22 1880.72,232 C1884.24,234.83 1887.49,237.18 1892.59,238.1 C1900.87134,239.42867 1908.65998,242.904081 1915.18,248.18 C1928.98,259.49 1940.25,273.65 1954.6,283.87 C1962.92049,289.627881 1972.286,293.704273 1982.17,295.87 C1991.26,297.93 1999.63,303.32 2008.17,307.58 C2009.4,308.2 2010.22,310.7 2010.3,312.37 C2010.61,318.37 2012.77,321.72 2018.15,323.6 C2024.74,325.89 2036.69,335.33 2041.39,340.85 C2044.52,344.52 2048.64,347.35 2052.34,350.53 C2054.34,352.24 2056.39,353.89 2058.4,355.58 C2060.41,357.27 2062.26,359.28 2064.48,360.58 C2073.71,366.18 2083.07,371.58 2092.32,377.11 C2093.47115,377.757827 2094.35126,378.79764 2094.8,380.04 C2096.32,386.81 2101.29,390.21 2106.46,394.16 C2111.83179,398.491979 2116.46237,403.669724 2120.17,409.49 C2121.97,412.2 2121.17,416.66 2121.5,420.09 C2121.87,419.92 2123.5,418.72 2123.88,419.03 C2129.07,423.44 2138.2,424.17 2137.96,433.82 C2137.96,434.51 2139.06,435.5 2139.87,435.89 C2147,439.34 2149.57,444.69 2149.04,452.75 C2148.67,458.25 2152.33,462.36 2158.12,464.29 C2165.77,466.85 2171.95,471.74 2177.49,477.74 C2176.42,480.74 2175.49,483.47 2174.73,485.51 C2177.01,493.1 2187.15,483.45 2187.98,493.01 C2187.55169,493.809992 2187.00181,494.538664 2186.35,495.17 C2180.29,499.59 2180.42,499.5 2183.24,505.97 C2184.29481,508.240288 2184.74601,510.744324 2184.55,513.24 C2183.55,521.42 2181.99,529.53 2180.55,538.24 C2181.5243,539.338947 2182.6369,540.307008 2183.86,541.12 C2188.3,543.43 2189.49,546.27 2188.41,551.57 C2187.48,556.16 2189.21,561.29 2189.77,566.18 C2190.46,572.3 2193.99,578.24 2190.92,584.6 C2195.19,593.45 2191.41,603.91 2197.34,612.84 C2200,616.84 2199.26,623.5 2199.07,628.92 C2198.81,636.13 2196.75,643.49 2203.92,648.92 C2202.76,651.92 2201.23,654.6 2200.75,657.47 C2200.42,659.47 2200.82,662.47 2202.13,663.59 C2205.36,666.4 2205.73,669.71 2205.63,673.46 C2205.53,677.21 2204.69,681.18 2207.18,684.96 C2208.28896,687.066255 2208.39178,689.559591 2207.46,691.75 C2203.78,698.75 2206.46,706.75 2202.66,714.15 C2199.13,720.92 2197.33,729.62 2207.07,735.51 L2199.02,744.66 C2199.68,755.77 2200.44,767.54 2201.02,779.32 C2201.13,781.47 2201.37,784.37 2200.17,785.7 C2194.74,791.77 2197,797.27 2200.62,802.9 C2201.33,804.01 2202.13,805.07 2202.99,806.3 C2199.08,818.45 2194.17,830.47 2191.64,842.97 C2190.38,849.2 2189.64,855.66 2188.37,861.97 C2187.64,865.51 2188.88,869.83 2190.32,873.35 C2193,879.96 2190.1,885.03 2186.48,889.71 C2183.48,893.63 2181.82,897.6 2182.19,902.52 C2182.34,904.52 2182.75,907.02 2181.77,908.38 C2176.77,915.27 2179.85,922.38 2180.56,929.47 C2180.66,930.47 2181.56,931.47 2181.35,932.32 C2179.92,938.8 2175.5,946.32 2177.43,951.44 C2180.22,958.9 2178,964.03 2175.84,970.25 C2173.38,977.34 2170.92,984.58 2169.84,991.96 C2167.93,1005.12 2160.58,1015.18 2152.96,1025.26 C2151.37,1027.36 2148.73,1029.14 2148.17,1031.46 C2146.07,1040.01 2139.23,1044.46 2133.03,1049.04 C2129.38,1051.72 2124.03,1052.7 2119.28,1053.12 C2114.66876,1053.45411 2110.0365,1052.89036 2105.64,1051.46 C2100.84,1049.93 2097.05,1050.58 2092.43,1052.46 C2089.08,1053.79 2084.55,1052.17 2078.56,1051.72 L2071.16,1057.36 C2068.52,1050.18 2063.02,1050.36 2057.27,1051.94 C2052.42469,1053.10755 2047.67714,1054.64883 2043.07,1056.55 C2031.57,1061.71 2020.01,1066.86 2008.94,1072.88 C2003.13,1076.03 1996.55,1075.66 1990.66,1079.55 C1983.77,1084.12 1974.77,1085.55 1966.66,1088.24 C1965.70893,1088.64395 1964.64456,1088.69362 1963.66,1088.38 C1955.29,1083.97 1948.74,1090.45 1941.32,1091.59 C1930.59,1093.24 1920.82,1098.25 1909.81,1098.91 C1901.33,1099.41 1892.97,1102 1884.59,1103.79 C1882.96078,1104.07748 1881.42834,1104.76467 1880.13,1105.79 C1865.75,1118.53 1847.5,1124.49 1831.13,1133.63 C1822.51,1138.43 1813.73,1142.9 1805.92,1148.92 C1795.42295,1157.15387 1782.22228,1161.15689 1768.92,1160.14 C1761.29,1159.66 1755.19,1162.86 1749.66,1166.68 C1742.93,1171.33 1737.47,1177.79 1731.06,1182.98 C1726.09651,1186.77576 1720.91788,1190.2816 1715.55,1193.48 C1709.4,1197.37 1702.94,1200.77 1696.92,1204.84 C1687.67,1211.08 1677.31,1215.17 1666.57,1216.04 C1650.81,1217.33 1636.91,1221.29 1625.28,1232.54 C1622.17,1235.54 1616.94,1236.23 1613.39,1238.92 C1599.2,1249.7 1585.3,1260.92 1571.25,1271.86 C1565.51,1276.34 1559.71,1280.74333 1553.85,1285.07 C1552.72431,1285.7511 1551.44462,1286.13639 1550.13,1286.19 C1541.57,1286.96 1534.34,1291 1527.42,1295.61 C1516.17,1303.12 1503.36,1309.27 1494.36,1318.93 C1485.01,1328.98 1473.88,1332.63 1462.02,1336.65 C1452.63697,1339.85885 1443.43363,1343.5709 1434.45,1347.77 C1428.81,1350.39 1424.1,1355.17 1418.35,1357.34 C1404.42,1362.6 1394.89,1373.84 1383,1381.78 C1377.51,1385.45 1371.39,1388.16 1365.56,1391.3 C1353.02667,1398.05333 1340.49333,1404.79333 1327.96,1411.52 C1325.99469,1412.7487 1323.86286,1413.68832 1321.63,1414.31 C1308.23,1416.99 1296.12,1423.5 1283.24,1427.31 C1270.72,1431.04 1259.37,1438.31 1245.47,1438.5 C1234.9,1438.64 1226.47,1446.03 1218.38,1452.42 C1210.71586,1458.56443 1202.26004,1463.65002 1193.24,1467.54 C1177.17,1474.37 1161.24,1481.74 1145.82,1489.82 C1134.76,1495.6 1124.65,1503.18 1113.82,1509.39 C1108.7,1512.31 1102.82,1513.76 1097.32,1516.15 C1094.00612,1517.59831 1090.82419,1519.33148 1087.81,1521.33 C1083.97,1523.87 1080.58,1527.14 1076.63,1529.48 C1067.29,1535.02 1057.25,1539 1049.47,1547.48 C1045.4,1551.91 1037.36,1552.42 1031.77,1555.79 C1026.18,1559.16 1021.77,1564.44 1016.2,1567.79 C1012.04,1570.26 1006.67,1570.59 1002.12,1572.53 C994.91,1575.62 987.93,1579.23 980.86,1582.65 C963.03,1591.27 944.21,1597.73 927,1607.75 C922.8,1610.19 917.49,1610.65 913.14,1612.9 C906.14,1616.51 898.8,1619.64 893.58,1626.13 C891.82,1628.31 888.78,1629.66 886.08,1630.86 C878.65,1634.15 870.99,1636.93 863.67,1640.43 C861.57,1641.43 860.37,1644.21 858.67,1646.08 C856.26,1648.7 854.19,1652.08 851.19,1653.62 C842.98,1657.73 834.35,1661 825.19,1664.92 C824.94,1664.15 824.5,1662.78 823.91,1660.97 C817.24,1663.91 809.05,1663.38 804.34,1670.51 C803.85,1671.25 802.64,1672.17 801.96,1672.04 C793.41,1670.33 790.3,1677.78 786.53,1682.4 C783.914106,1685.66173 780.60377,1688.29906 776.84,1690.12 C758.84,1699.22 740.92,1708.6 722.84,1717.64 C719.72,1719.2 716.03,1719.64 712.59,1720.54 C706.73,1722.11 699.75,1720.63 695.73,1727.3 C695.07,1728.39 692.16,1728.55 690.32,1728.45 C679.53,1727.86 679.32,1727.95 675.11,1738.11 C674.49,1739.62 673.97,1741.17 673.28,1743.01 C668.69,1743.77 663.99,1744.01 659.73,1745.42 C655.83,1746.77 652.4,1749.49 648.48,1751.76 C643.94,1745.16 637.2,1742.06 629.17,1741.63 C626.17,1741.47 623.17,1741.74 620.17,1741.81 C615.42,1741.93 615.42,1741.92 613.17,1735.49 C602.01,1739.73 593.89,1730.81 584.08,1728.35 C579.78,1727.28 575.91,1724.45 571.89,1722.35 C568.69,1720.64 565.65,1718.24 562.02,1721.64 C561.49,1722.13 560.08,1721.98 559.19,1721.73 C552.34,1719.73 545.55,1717.52 538.67,1715.63 C536.871152,1715.15297 534.976076,1715.17718 533.19,1715.7 C530.19,1716.7 527.96,1716.3 524.9,1714.96 C521.27,1713.36 516.66,1714.01 512.23,1713.67 C507.91,1707.06 516.89,1708.6 517.93,1704.52 C515.93,1701.52 514.71,1697.02 508.85,1700.42 C508.35,1700.71 505.85,1697.59 503.85,1695.59 L490.4,1708.35 L482.79,1705.95 C486.15,1702.53 490.57,1700.12 491.03,1697.1 C491.82,1691.96 497.11,1686.93 491.82,1680.1 C489.64,1683.21 487.63,1686.1 484.82,1689.97 L486.33,1694.75 C485.627338,1695.38391 484.863609,1695.94666 484.05,1696.43 C477.58,1699.43 471.59,1704.54 463.68,1701.43 C460.9,1700.34 458.37,1698.57 455.56,1697.58 C449.63,1695.48 444.56,1690.93 437.48,1691.76 C435.42,1692 433.01,1689.32 430.95,1688.1 C430.5,1680.17 441.69,1687.39 440.43,1678.58 L434.6,1677.47 C435.47,1671.2 440.87,1670.17 445.07,1667.47 C449.42,1664.7 453,1660.73 456.65,1657.53 C452.2,1650.23 447.75,1646.04 437.87,1650.06 L447.31,1650.83 C443.87,1654.76 442.56,1659.5 436.65,1656.42 C436.04,1656.1 434.71,1656.73 433.93,1657.25 C429.04,1660.53 428.24,1668.42 432.45,1674.38 L424.45,1678.02 C423.71,1677.24 422.68,1676.66 422.45,1675.88 C421.7,1672.71 420.25,1669.3 420.81,1666.32 C422.13,1659.32 424.46,1652.57 426.41,1645.61 C421.61,1641.22 416.34,1642.98 411.47,1642.5 C409.47,1648.82 416.67,1647.03 417.47,1651.23 C415.23,1653.3 412.88,1652.55 411,1650.63 C403.51,1642.98 393.4,1641.28 383.84,1638.21 C378.4,1636.46 373.13,1634.21 367.84,1632.12 C366.700106,1631.53391 365.495135,1631.08414 364.25,1630.78 C355.1,1629.68 354.47,1629.16 352.89,1620.27 C345.68,1617.69 343.02,1629.9 334.63,1625.27 L329.23,1615.01 L334.36,1611.26 C333.98,1606.67 330.41,1607.73 327.5,1606.71 C320.34,1604.21 314.81,1598.58 308.06,1595.05 C306.32,1594.13 306.2,1590.12 305.01,1586.57 C291.13,1586.02 285.26,1573.23 276.56,1564.13 C274.751765,1562.21699 273.449131,1559.88325 272.77,1557.34 C270.92,1549.77 266.2,1544.42 260.2,1540.01 C257.26,1537.84 254.38,1536.43 254.79,1531.53 C255,1529.05 252.06,1525.53 249.64,1523.78 C245.74,1520.87 241.03,1519.07 236.78,1516.61 C235.436052,1515.74115 234.282709,1514.60822 233.39,1513.28 C230.86,1509.82 228.46,1506.28 226.08,1502.69 C225.083433,1501.42779 224.318284,1499.99906 223.82,1498.47 C222.54,1492.84 220.75,1490.81 216.11,1485.76 C212.19,1481.49 207.78,1476.59 206.49,1471.26 C204.93,1464.83 200.42,1461.26 196.91,1456.81 C191.7,1450.23 191.26,1450.58 196.64,1444.64 C191.8,1441.79 187.17,1438.36 182,1436.32 C179.39,1435.32 175.79,1436.73 171.42,1437.18 C171.81,1432 172.17,1427.04 172.54,1422.09 C167.04,1420.56 161.09,1419.59 160.62,1412.01 C160.56,1411.1 160.11,1409.63 159.49,1409.41 C151.37,1406.41 150.8,1397.35 145.4,1392.06 C143.02,1389.71 142.22,1384.61 142.53,1380.91 C143.03,1374.91 138.53,1367.74 148.53,1363.15 C136.53,1362.71 137.68,1362.37 134.96,1352.78 C133.05,1346.07 131.47,1338.69 127.96,1332.78 C125.11,1328 124.25,1321.54 118.45,1318.36 C116.8,1317.45 115.28,1314.28 115.51,1312.36 C116.08,1307.84 119.38,1303.42 115.05,1299.02 C115.05,1299.02 116.71,1297.26 118.12,1295.77 C112.12,1291.44 109.91,1285.31 111.26,1278.22 L103.42,1275.43 C102.53,1267.1 101.73,1259.62 100.76,1250.59 C101.33,1250.09 103.38,1248.23 105.35,1246.46 C104.67,1245.36 104.35,1244.46 104.02,1244.39 C94.02,1243.39 93.67,1243.07 92.19,1233.85 C89.6652465,1232.37899 87.22783,1230.76294 84.89,1229.01 C83.69,1228.01 82.09,1225.73 82.49,1224.92 C86.55,1216.61 79.29,1211.73 77.09,1205.33 C75.98,1202.12 76.02,1198.5 75.7,1195.05 C75.61,1194.13 76.52,1193.05 76.25,1192.22 C73.83,1185.3 71.25,1178.44 68.47,1170.84 C70.42,1169.72 72.53,1168.49 74.04,1167.61 C75.77,1161.87 77.32,1156.61 78.95,1151.26 C72.34,1149.63 66.03,1151.58 61.46,1144.81 L72.81,1138.34 C66.57,1132.51 65.96,1132.11 60.1,1136.71 C56.1,1139.85 52.33,1141.71 46.84,1139.71 C43.4,1134.88 43.13,1126.99 35.91,1125.23 C33.83,1119.01 45.44,1121.42 41.39,1113.88 L33.69,1114.58 C33.5,1113.74 33.01,1112.79 33.26,1112.58 C36.9123287,1108.9128 38.3836038,1103.60407 37.14,1098.58 C36.69,1096.47 37.07,1094.19 37.07,1091.58 C41.5,1090.87 44.82,1091.33 47.95,1093.96 C48.06,1099.73 44.5,1106.96 54.23,1109.29 C52.64,1113.88 49.23,1118.29 53.7,1122.35 C57.58,1125.87 61.58,1123.99 65.33,1122.7 C63.53,1112.39 61.82,1102.59 60.03,1092.36 L68.03,1086.93 C60.22,1080.75 65.1,1072.27 64.49,1064.21 L54,1064.21 C55.11,1059.07 56.1,1054.46 57.25,1049.21 L66.44,1045.21 C62.78,1043.34 60.44,1041.05 58.7,1041.45 C53.1,1042.73 52.6,1039.07 51.58,1035.03 C53.49,1033.67 55.58,1032.14 57.66,1030.73 C63.66,1026.68 64.15,1026.89 67.58,1034.39 C68.0996902,1035.13599 68.8580087,1035.68269 69.73,1035.94 C70.3992813,1036.02884 71.0796229,1035.98122 71.73,1035.8 C76.35,1028.87 69.06,1025.72 66.26,1022.31 C63.46,1018.9 57.91,1016.51 52.66,1019.12 C47.41,1021.73 41.35,1022.03 36.57,1026.51 C32.16,1030.65 28.57,1028.2 27.37,1021.21 C35.6,1019.5 38.16,1018.3 42.54,1014.07 C36.05,1010.28 36.05,1010.28 27.97,1013.51 C28.3033333,1008.35 28.6366667,1003.37667 28.97,998.59 C34.34,996.35 38.44,997.79 40.75,1001.67 C51.1,1000.78 51.58,991.61 57.44,985.6 L71.56,989.6 C72.14,985.06 72.71,980.6 73.36,975.44 C66.24,974.94 61.82,972.58 63.74,964.35 C64.23,962.27 61.07,959.43 59.83,956.83 C58.83,954.83 57.62,952.54 57.65,950.4 C57.65,947.12 61.51,948.69 62.42,947.86 C65.22,945.31 68.01,941.86 68.9,938.29 C72.01,925.75 75.22,913.29 82.1,902.22 C76.81,894.81 80.75,884.37 89.26,883.1 C96.63,882.01 96.6,882.03 93.71,875.71 C93.03,874.23 92.61,872.62 91.63,869.79 L105,864.3 C106.4,861.3 108.71,857.37 110.06,853.15 C111.099693,849.739141 111.51303,846.168176 111.28,842.61 C110.91,836.36 112.42,831.53 119.33,828.66 L124.93,835.1 L116.68,842.73 L128.68,847.97 C131.28,844.89 132.68,841.97 131.25,836.9 C128.6,827.23 132.64,823.44 143.76,822.9 C146.273242,822.609609 148.76279,822.141775 151.21,821.5 C152.26,824.5 146.64,828.2 152.92,831.05 C152.21,827.63 151.59,824.67 150.98,821.72 C154.14,813.19 157.2,804.63 160.53,796.16 C161.548418,793.609433 162.94397,791.226208 164.67,789.09 C171.18,781 177.93,773.09 184.45,765.02 C185.467983,763.706297 186.039138,762.101456 186.08,760.44 C186.08,751.31 192.4,747.44 199.25,743.88 L198.25,750.88 L199.86,751.17 L201.2,744.12 Z M276.85,664.45 C284.08,666.33 285.63,661.89 287.48,657.23 C279.35,655.39 279.35,655.39 276.85,664.45 Z M156.85,1223.45 L154.6,1222.79 C149.12,1229.17 149.12,1229.17 154.29,1234.41 C155.21,1230.22 156,1226.81 156.8,1223.4 L156.85,1223.45 Z M200.22,1063.92 C207.12,1059.02 207.12,1059.02 203.38,1050.5 C202.11,1055.64 201.32,1059 200.17,1063.87 L200.22,1063.92 Z M268.07,1424.92 C274.74,1423.64 276.31,1420.15 274.36,1412.71 L268.07,1424.92 Z M106.25,1058 L112.45,1066.21 L113.77,1065.7 C112.77,1061.94 111.7,1058.18 110.13,1052.48 L106.25,1058 Z M148.64,1343.1 C152.95,1345.32 155.75,1343.87 157.73,1341.42 C158.35,1340.65 156.98,1338.28 156.35,1336.06 L148.64,1343.1 Z M69.5,1016.2 L72.5,1015.58 C72.75,1013.21 73,1010.84 73.4,1007.08 C70.69,1008.33 67.88,1009 67.86,1009.75 C67.79,1011.84 68.87,1014 69.5,1016.16 L69.5,1016.2 Z M159.5,1053.61 C164.23,1056.61 166.72,1056.28 167.5,1051.36 C167.55,1050.99 166.74,1050.47 165.86,1049.52 L159.5,1053.61 Z M242.58,1211.8 L242.13,1215.07 C243.901078,1215.40588 245.697606,1215.58988 247.5,1215.62 C247.75,1215.62 247.92,1213.42 248.13,1212.23 L242.58,1211.8 Z M511.75,375.53 L513.75,376.09 L515.4,371 C514.49172,370.797443 513.568843,370.667037 512.64,370.61 C512.246079,372.23091 511.948888,373.873809 511.75,375.53 L511.75,375.53 Z M1688.57,136.85 L1680.97,138.22 L1689.24,142.68 C1688.93,140 1688.8,138.83 1688.57,136.85 Z M106.74,1241 L109.59,1242.75 L113.18,1235.66 L110.88,1234.37 L106.74,1241 Z M109.02,1211.48 L110.59,1211.92 C111.08,1210.41 111.97,1208.92 111.93,1207.4 C111.93,1206.15 110.77,1204.94 110.12,1203.71 L108.66,1204.18 L109.02,1211.48 Z M188.38,1297.78 L184.26,1304.95 C186.83,1303.79 191.15,1304 188.38,1297.77 L188.38,1297.78 Z M179.23,1315 L184.99,1310.89 L178.64,1307.89 C178.88,1310.72 179,1312.51 179.23,1315 Z M174.5,1388.46 L174.5,1386.06 L168.65,1387.29 L169.05,1389.37 L174.5,1388.46 Z M259.45,700.65 L261.33,702.22 L264.61,697.61 L263.69,696.84 L259.45,700.65 Z M60.2,1002.06 L61.2,1000.43 L57.3,997.68 L55.82,999.9 L60.2,1002.06 Z M121,1237 L120.7,1234.78 L115.47,1235.1 L115.47,1237 L121,1237 Z M165.4,1332.06 L163.5,1330.48 L159.26,1335.18 L160.92,1336.67 L165.4,1332.06 Z M223,1455 C222.86,1455.84 222.73,1456.68 222.59,1457.52 L227.81,1457.52 L228.02,1456.22 L223,1455 Z" id="Shape"></path>
            <path d="M37.54,1075.23 C35.97,1068.97 37.54,1063.41 30.54,1063.05 C26.91,1062.87 23.39,1060.29 19.54,1058.68 C20.44,1052.85 22.54,1050.68 29.79,1048.95 C29.03,1051.21 28.38,1053.17 27.58,1055.58 C34.01,1055.51 33.81,1050.84 34.41,1047.04 L46.24,1047.04 C45.36,1048.4 43.31,1050.66 43.67,1051.16 C50.38,1060.48 43.61,1066.44 37.54,1075.23 Z" id="Path"></path>
            <path d="M54.51,968.52 C45.87,966.61 45.87,966.61 38.41,957.43 L44.34,947.37 C50.9,953.19 49.57,961.33 54.51,968.52 Z" id="Path"></path>
            <path d="M3.44,1007.08 C8.79,1015.8 4.76,1023.08 5.24,1030.69 C3.69,1028.99 1.24,1027.51 0.76,1025.56 C-0.55,1019.92 0.27,1014.3 3.44,1007.08 Z" id="Path"></path>
            <path d="M337.48,570.68 C342.18,574.61 339.09,578.98 338.48,583.19 L331.48,583.59 C329.21,580.78 331.51,575.87 337.48,570.68 Z" id="Path"></path>
            <path d="M41.63,935.63 C37.9,932.75 38.48,930.39 41.23,929.63 C46.15,928.33 46.7,924.45 47.42,920.11 C48.7720937,920.224965 50.1109367,920.46261 51.42,920.82 C52.9749326,921.636136 54.4658583,922.5688 55.88,923.61 L41.63,935.63 Z" id="Path"></path>
            <path d="M36.68,985.62 C36.95,982.38 37.17,979.78 37.44,976.7 L48.85,979.45 C46.64,985 42.94,985.86 36.68,985.62 Z" id="Path"></path>
            <path d="M56.37,1164.45 L48.47,1152.76 C56.69,1152.66 56.72,1152.7 56.37,1164.45 Z" id="Path"></path>
            <path d="M437.26,439.61 C438.07,435.03 438.71,431.47 439.39,427.61 C445.72,431.35 445.52,432.56 437.26,439.61 Z" id="Path"></path>
            <path d="M87.22,872.69 L76.22,869.75 C82.53,863.81 83.09,864 87.22,872.69 Z" id="Path"></path>
            <path d="M14.08,936.23 C19.55,933.16 22.22,936.06 25.67,940.76 C20.13,941.68 16.7,940.82 14.08,936.23 Z" id="Path"></path>
            <path d="M2197.37,551.08 C2195.52,549.08 2193.81,547.96 2193.31,546.44 C2193.02,545.56 2194.87,542.93 2195.42,543.03 C2197.02,543.3 2199.35,544.29 2199.7,545.49 C2200.05,546.69 2198.49,548.61 2197.37,551.08 Z" id="Path"></path>
            <path d="M60.54,884.51 C60.26,886.87 62.1,890.45 57.28,890.31 C55.86,890.31 54.5,888.41 53.11,887.39 L58.6,882.63 L60.54,884.51 Z" id="Path"></path>
            <path d="M51.14,1071.87 C57.56,1076.28 57.56,1076.28 52.45,1082.28 C52,1078.42 51.63,1075.77 51.14,1071.87 Z" id="Path"></path>
            <path d="M48.13,899.16 C45.34,899.62 42.88,899.82 42.29,896.36 C42.3806704,895.417108 42.9623466,894.592116 43.82,894.19 C47.18,893.83 47.94,896.07 48.13,899.16 Z" id="Path"></path>
            <path d="M36.07,1036.35 C31.07,1038.96 31.07,1038.96 26.82,1037.11 C30,1032.81 33.18,1037.54 36.07,1036.35 Z" id="Path"></path>
            <polygon id="Path" points="8.84 1063.18 10.19 1068.49 8.43 1069.04 6.59 1063.91"></polygon>
            <polygon id="Path" points="87.79 854 88.57 848.56 90.11 848.64 90.11 854"></polygon>
            <polygon id="Path" points="201.2 744.12 199.79 751.23 198.18 750.94 199.18 743.94"></polygon>
            <path d="M276.85,664.45 C279.35,655.39 279.35,655.39 287.48,657.23 C285.63,661.89 284.08,666.33 276.85,664.45 Z" id="Path"></path>
            <path d="M156.8,1223.4 C156,1226.81 155.21,1230.22 154.24,1234.4 C149.07,1229.16 149.07,1229.16 154.55,1222.78 L156.8,1223.4 Z" id="Path"></path>
            <path d="M200.17,1063.87 C201.32,1058.96 202.11,1055.64 203.33,1050.45 C207.07,1059 207.07,1059 200.17,1063.87 Z" id="Path"></path>
            <path d="M268,1424.87 L274.29,1412.66 C276.26,1420.1 274.69,1423.59 268,1424.87 Z" id="Path"></path>
            <path d="M106.25,1058 L110.13,1052.48 C111.7,1058.18 112.74,1061.94 113.77,1065.7 L112.45,1066.21 L106.25,1058 Z" id="Path"></path>
            <path d="M148.64,1343.06 L156.35,1336.06 C156.98,1338.28 158.35,1340.65 157.73,1341.42 C155.75,1343.83 153,1345.28 148.64,1343.06 Z" id="Path"></path>
            <path d="M69.5,1016.16 C68.87,1014.01 67.79,1011.84 67.85,1009.71 C67.85,1008.96 70.68,1008.29 73.39,1007.04 C72.99,1010.8 72.74,1013.17 72.49,1015.54 L69.5,1016.16 Z" id="Path"></path>
            <path d="M159.54,1053.57 L165.89,1049.48 C166.77,1050.48 167.58,1050.95 167.53,1051.32 C166.76,1056.24 164.27,1056.53 159.54,1053.57 Z" id="Path"></path>
            <path d="M242.62,1211.76 L248.17,1212.19 C247.96,1213.38 247.79,1215.57 247.54,1215.58 C245.737606,1215.54988 243.941078,1215.36588 242.17,1215.03 L242.62,1211.76 Z" id="Path"></path>
            <path d="M511.75,375.53 C511.950059,373.883888 512.247244,372.25104 512.64,370.64 C513.568843,370.697037 514.49172,370.827443 515.4,371.03 L513.75,376.09 L511.75,375.53 Z" id="Path"></path>
            <path d="M1688.57,136.85 C1688.8,138.85 1688.93,140.03 1689.24,142.68 L1680.97,138.22 L1688.57,136.85 Z" id="Path"></path>
            <polygon id="Path" points="106.74 1241 110.88 1234.37 113.18 1235.66 109.59 1242.75"></polygon>
            <path d="M109,1211.47 L108.64,1204.17 L110.1,1203.7 C110.75,1204.93 111.88,1206.14 111.91,1207.39 C111.91,1208.88 111.06,1210.39 110.57,1211.91 L109,1211.47 Z" id="Path"></path>
            <path d="M188.38,1297.77 C191.15,1304 186.83,1303.77 184.26,1304.94 L188.38,1297.77 Z" id="Path"></path>
            <path d="M179.23,1315 C179.03,1312.5 178.88,1310.71 178.64,1307.86 L184.99,1310.86 L179.23,1315 Z" id="Path"></path>
            <path d="M151,821.74 C151.61,824.74 152.23,827.65 152.94,831.07 C146.66,828.22 152.28,824.52 151.23,821.52 L151,821.74 Z" id="Path"></path>
            <polygon id="Path" points="174.5 1388.47 169.07 1389.38 168.67 1387.3 174.52 1386.07"></polygon>
            <polygon id="Path" points="259.45 700.66 263.69 696.85 264.61 697.62 261.33 702.23"></polygon>
            <polygon id="Path" points="60.2 1002.06 55.78 999.9 57.26 997.68 61.16 1000.43"></polygon>
            <polygon id="Path" points="121 1237 115.5 1237 115.5 1235.1 120.73 1234.78"></polygon>
            <polygon id="Path" points="165.39 1332.07 160.91 1336.68 159.25 1335.19 163.49 1330.49"></polygon>
            <path d="M223,1455 L228,1456.22 L227.79,1457.52 L222.57,1457.52 C222.69,1456.67 222.82,1455.83 223,1455 Z" id="Path"></path>
        </g>
    </g>
</svg>