<?xml version="1.0" encoding="UTF-8"?>
<svg width="2626px" height="1991px" viewBox="0 0 2626 1991" version="1.1" xmlns="http://www.w3.org/2000/svg" xmlns:xlink="http://www.w3.org/1999/xlink">
    <!-- Generator: Sketch 61.2 (89653) - https://sketch.com -->
    <title>Group 89</title>
    <desc>Created with Sketch.</desc>
    <defs>
        <polygon id="path-1" points="0.4581 0.646 2594.21685 0.646 2594.21685 1990.9997 0.4581 1990.9997"></polygon>
        <polygon id="path-3" points="0 0.6686 17.6837 0.6686 17.6837 12.232923 0 12.232923"></polygon>
    </defs>
    <g id="Page-1" stroke="none" stroke-width="1" fill="none" fill-rule="evenodd">
        <g id="Group-89" transform="translate(0.000000, -1.000000)">
            <path d="M307.4546,1454.9087 C307.4876,1454.9187 307.5156,1454.9217 307.5486,1454.9297 C307.5366,1454.8737 307.5286,1454.8147 307.5136,1454.7587 L307.4546,1454.9087 Z" id="Fill-1" fill="#000000"></path>
            <g id="Group-5" transform="translate(31.000000, 0.350000)">
                <mask id="mask-2" fill="white">
                    <use xlink:href="#path-1"></use>
                </mask>
                <g id="Clip-4"></g>
                <path d="M2365.0181,507.0587 C2371.9351,499.0457 2379.6081,506.2767 2387.3081,503.6247 C2386.7371,505.3517 2386.4451,506.2377 2386.1651,507.0587 L2365.0181,507.0587 Z M2143.6821,367.6107 C2145.8241,367.8027 2147.8901,368.8307 2150.0191,369.6097 C2147.2651,370.2457 2144.4791,370.8887 2139.7701,371.9757 C2141.8361,369.5827 2142.8541,367.5367 2143.6821,367.6107 L2143.6821,367.6107 Z M1167.1921,1844.3957 C1171.3601,1842.0257 1175.5281,1839.6557 1180.1541,1837.0247 C1179.2051,1846.1057 1172.0601,1843.1227 1167.1921,1844.3957 L1167.1921,1844.3957 Z M1153.4431,55.1637 C1153.7511,54.5037 1154.0591,53.8437 1154.3671,53.1837 C1156.6631,53.1837 1158.9601,53.1837 1161.2671,53.1957 C1160.9531,56.1657 1160.6381,59.1467 1160.2871,62.4617 C1154.0941,63.2937 1157.8641,55.8927 1153.4431,55.1637 L1153.4431,55.1637 Z M993.7341,95.2007 C997.3571,91.4287 1000.1641,93.3887 1002.7181,95.2007 L993.7341,95.2007 Z M987.5631,98.3017 C986.8941,97.9277 986.2261,97.5547 985.5571,97.1807 C985.9991,96.1517 986.2791,94.9967 986.9411,94.1357 C987.3921,93.5507 988.3771,93.3767 990.8461,92.1917 C989.2091,95.2387 988.3861,96.7697 987.5631,98.3017 L987.5631,98.3017 Z M903.8491,103.7357 C910.1901,102.2227 910.2071,102.2407 913.3481,106.9367 C909.3821,105.5957 906.6171,104.6607 903.8491,103.7357 L903.8491,103.7357 Z M639.9331,169.9107 C643.7361,171.3557 645.8761,172.1697 649.2201,173.4407 C645.1501,174.5717 642.3811,175.8267 639.9331,169.9107 L639.9331,169.9107 Z M609.7401,172.7877 C611.0311,174.6717 612.0031,176.0887 613.8381,178.7667 C609.7731,177.5457 606.8491,177.1877 609.7401,172.7877 L609.7401,172.7877 Z M592.4911,1962.2377 C591.9901,1959.0927 591.6091,1956.6987 590.9301,1952.4387 C595.1731,1956.2477 596.1041,1958.6117 592.4911,1962.2377 L592.4911,1962.2377 Z M589.9221,1947.0487 C588.4921,1947.0857 587.0561,1946.8637 585.6211,1946.7317 C585.7771,1945.8957 585.9331,1945.0597 586.0891,1944.2237 C587.6261,1944.6327 589.1631,1945.0427 590.6991,1945.4537 C590.4411,1946.0117 590.1951,1947.0417 589.9221,1947.0487 L589.9221,1947.0487 Z M578.7841,1945.1177 L576.6971,1943.5237 C577.6541,1942.1497 578.5981,1940.7667 579.6271,1939.4497 C579.6611,1939.4067 581.0281,1940.2287 580.9871,1940.3297 C580.3281,1941.9557 579.5411,1943.5317 578.7841,1945.1177 L578.7841,1945.1177 Z M560.0671,1877.6077 C560.0341,1877.2657 560.0011,1876.9237 559.9681,1876.5817 C562.1321,1876.3617 564.2951,1876.1417 566.4591,1875.9217 C566.4971,1876.2877 566.5341,1876.6517 566.5711,1877.0167 C564.4031,1877.2137 562.2351,1877.4107 560.0671,1877.6077 L560.0671,1877.6077 Z M556.4991,1922.4667 C556.0971,1921.8077 554.9081,1921.4687 554.0221,1921.2897 C547.0211,1919.8727 547.0161,1919.8967 549.9261,1912.9417 C553.5101,1919.2137 561.8571,1917.4307 566.2741,1923.0877 C562.9331,1923.9927 559.7501,1927.7947 556.4991,1922.4667 L556.4991,1922.4667 Z M557.8861,1904.7037 C557.9401,1905.4287 557.9951,1906.1547 558.0491,1906.8797 C555.1871,1907.1527 552.3261,1907.4247 547.7641,1907.8597 C551.8631,1898.9097 554.9961,1905.7687 557.8861,1904.7037 L557.8861,1904.7037 Z M561.4391,1890.8607 C557.3361,1894.0897 554.6831,1898.4907 547.5091,1898.5607 C550.8091,1891.6037 554.3131,1888.4537 561.4391,1890.8607 L561.4391,1890.8607 Z M555.4301,1877.4507 C552.2491,1879.0797 549.0671,1880.7077 544.5501,1883.0207 C546.3401,1874.6537 550.4901,1875.2117 555.4301,1877.4507 L555.4301,1877.4507 Z M544.4461,1910.7657 C542.8791,1912.3207 543.5741,1917.5377 537.5581,1913.4877 C539.9581,1911.6257 541.6591,1910.3067 543.4161,1908.9447 C543.9331,1909.8397 544.5481,1910.6637 544.4461,1910.7657 L544.4461,1910.7657 Z M535.0291,1896.5817 C529.5961,1893.0667 532.5631,1891.3937 537.0371,1890.2987 C536.4041,1892.2797 535.7711,1894.2597 535.0291,1896.5817 L535.0291,1896.5817 Z M527.4091,1879.5947 C530.1291,1877.1017 532.8491,1874.6097 535.5191,1872.1627 C538.2491,1874.1317 539.5851,1876.1367 536.3111,1877.5337 C533.5531,1878.7107 530.4121,1878.9907 527.4091,1879.5947 L527.4091,1879.5947 Z M513.1021,1869.9627 C512.6411,1869.2297 512.1801,1868.4957 511.7191,1867.7617 C512.9091,1866.3707 514.1111,1863.7777 515.2871,1863.7897 C521.0431,1863.8477 526.8791,1861.4787 532.5771,1863.8867 C526.0821,1865.9137 519.5921,1867.9387 513.1021,1869.9627 L513.1021,1869.9627 Z M534.8941,1856.0847 C537.6041,1857.3007 540.1391,1858.4377 543.7641,1860.0627 C539.8741,1861.3947 536.5021,1862.5497 533.1461,1863.6997 C533.7421,1861.1037 534.3361,1858.5157 534.8941,1856.0847 L534.8941,1856.0847 Z M499.4561,1863.8807 C500.8101,1859.0037 503.5001,1863.3037 505.5721,1863.8767 C503.5331,1863.8767 501.4931,1863.8767 499.4561,1863.8807 L499.4561,1863.8807 Z M489.5901,214.5737 C492.2791,211.1127 493.9741,208.9317 496.2051,206.0597 C497.2781,211.3767 495.7111,213.6487 489.5901,214.5737 L489.5901,214.5737 Z M476.4321,1788.4437 C478.9861,1786.7387 481.5401,1785.0347 484.8701,1782.8117 C485.1481,1790.3757 479.9981,1788.1497 476.4321,1788.4437 L476.4321,1788.4437 Z M472.8241,1761.8597 C472.5951,1760.5387 474.8401,1758.7907 477.3591,1755.3827 C478.2161,1760.0017 478.6311,1762.2387 479.0461,1764.4757 C478.3791,1764.9187 477.7111,1765.3637 477.0441,1765.8067 C475.5411,1764.5077 473.0851,1763.3727 472.8241,1761.8597 L472.8241,1761.8597 Z M463.7521,1783.1557 C467.8021,1777.6867 467.8021,1777.6867 473.4601,1780.6917 C470.0841,1781.5477 467.5791,1782.1837 463.7521,1783.1557 L463.7521,1783.1557 Z M466.9241,1755.4427 C467.6231,1755.6137 468.3231,1755.7857 469.0221,1755.9567 L469.0221,1764.7897 C466.4571,1764.3917 464.3661,1764.0667 461.5561,1763.6287 C463.6661,1760.4107 465.2951,1757.9257 466.9241,1755.4427 L466.9241,1755.4427 Z M449.9811,1736.2147 C453.0771,1734.6737 453.1181,1726.4177 461.0941,1733.1657 C456.2611,1734.4927 453.1211,1735.3537 449.9811,1736.2147 L449.9811,1736.2147 Z M447.1711,1725.8327 C447.3011,1723.5337 447.4311,1721.2497 447.5251,1719.6047 C449.9561,1718.9037 452.2761,1718.2347 454.8501,1717.4927 C455.7371,1722.9247 453.1191,1725.7457 447.1711,1725.8327 L447.1711,1725.8327 Z M437.8861,1712.8757 C437.5521,1710.3207 437.3401,1708.7027 437.0821,1706.7287 C439.6201,1707.0807 441.5951,1707.3557 445.2361,1707.8617 C442.1581,1709.9607 440.4621,1711.1187 437.8861,1712.8757 L437.8861,1712.8757 Z M470.5411,1742.2867 C473.3491,1743.1697 475.4621,1743.8337 477.6441,1744.5217 C477.3871,1744.9647 477.2411,1745.6137 476.8611,1745.8107 C472.6311,1748.0057 468.6651,1752.5827 462.1541,1746.7877 C466.2671,1745.4577 472.5281,1751.3337 470.5411,1742.2867 L470.5411,1742.2867 Z M477.3171,1705.1547 C476.2991,1711.7067 475.4041,1717.4637 474.3931,1723.9667 C467.8621,1719.9047 467.8621,1719.9047 472.2351,1714.2497 C471.1221,1713.3597 470.0061,1712.4657 468.5081,1711.2667 C471.4861,1709.2007 473.7981,1707.5957 477.3171,1705.1547 L477.3171,1705.1547 Z M474.4341,1736.0547 C471.8411,1734.0597 470.0261,1731.9137 474.4341,1727.3737 L474.4341,1736.0547 Z M482.0231,1773.5697 C482.1001,1774.4617 480.9201,1775.4617 480.2931,1776.4147 C479.1781,1775.6077 478.0631,1774.8007 476.9481,1773.9937 C477.6961,1772.9897 478.4441,1771.9847 479.5951,1770.4397 C480.6801,1771.7517 481.9421,1772.6107 482.0231,1773.5697 L482.0231,1773.5697 Z M481.7461,1731.9127 C482.4681,1734.7777 482.9791,1736.8027 483.6421,1739.4337 L472.9101,1739.4337 C472.2391,1738.6307 471.5681,1737.8287 470.8971,1737.0247 C472.1621,1736.7677 473.4261,1736.5097 474.6901,1736.2517 C474.6631,1736.2317 474.6371,1736.2107 474.6111,1736.1917 C476.6991,1734.9397 478.8091,1733.6737 481.7461,1731.9127 L481.7461,1731.9127 Z M424.4971,1703.2957 C424.4691,1702.8617 424.4411,1702.4277 424.4141,1701.9937 C427.1271,1701.6157 429.8411,1701.2367 432.5551,1700.8577 C432.6041,1701.8477 432.6531,1702.8367 432.7021,1703.8267 L424.4971,1703.2957 Z M417.5391,1680.7597 C415.5111,1678.3237 413.9381,1676.4337 412.3641,1674.5317 C412.9811,1672.5837 413.5981,1670.6367 414.2151,1668.6907 C415.1511,1672.5877 422.0211,1674.6217 417.5391,1680.7597 L417.5391,1680.7597 Z M211.0311,1297.3077 C207.0601,1292.4037 204.4151,1294.8117 201.7911,1298.4937 C199.8631,1296.3967 197.8721,1294.2557 195.4661,1291.6687 C197.9701,1289.7907 198.1961,1284.3347 203.8531,1284.7817 C203.5801,1290.1257 209.8451,1287.9407 211.4731,1291.4077 C212.3781,1293.3357 214.4141,1294.7347 217.1761,1297.6977 C214.0301,1297.5537 211.6851,1298.1157 211.0311,1297.3077 L211.0311,1297.3077 Z M194.1331,1318.3667 C197.8001,1310.1257 200.9761,1315.1107 204.6261,1315.4357 C201.3971,1320.5387 198.2871,1316.3977 194.1331,1318.3667 L194.1331,1318.3667 Z M200.3871,1299.6207 C197.6861,1302.6517 203.3911,1306.1997 199.6851,1310.3027 C196.6301,1312.0597 195.0891,1308.4807 192.5071,1304.3217 C195.1851,1302.7237 197.7901,1301.1697 200.3871,1299.6207 L200.3871,1299.6207 Z M187.9851,1295.6907 C192.1221,1293.6377 192.1221,1293.6377 192.4831,1298.7167 C191.0211,1297.7337 189.5591,1296.7497 187.9851,1295.6907 L187.9851,1295.6907 Z M182.3901,1303.3397 C183.8281,1299.2357 183.8281,1299.2357 189.7681,1300.5917 C186.0361,1301.9827 184.3081,1302.6257 182.3901,1303.3397 L182.3901,1303.3397 Z M180.1181,1258.2277 C184.4501,1260.1427 187.3041,1261.4057 191.2871,1263.1657 C187.4311,1264.3537 184.4541,1265.2717 180.7261,1266.4197 C180.5241,1263.7067 180.3721,1261.6577 180.1181,1258.2277 L180.1181,1258.2277 Z M179.5941,1247.2557 C181.8141,1246.2767 184.0331,1245.2957 186.3321,1244.2817 C186.4611,1245.0367 186.6641,1245.8127 186.5891,1245.8397 C184.3651,1246.6627 182.1131,1247.4127 179.8661,1248.1727 C179.7751,1247.8677 179.6851,1247.5617 179.5941,1247.2557 L179.5941,1247.2557 Z M176.0051,1241.9157 C175.7201,1240.9257 175.4351,1239.9357 175.1501,1238.9467 C177.8951,1238.5867 180.6411,1238.2277 183.3861,1237.8687 C183.5421,1238.5437 183.6981,1239.2207 183.8541,1239.8977 C181.2381,1240.5707 178.6221,1241.2437 176.0051,1241.9157 L176.0051,1241.9157 Z M165.0651,1208.3117 C167.8621,1208.9607 170.6591,1209.6107 175.1741,1210.6587 C170.4571,1211.5707 167.4161,1213.1677 165.0651,1208.3117 L165.0651,1208.3117 Z M167.1871,1190.5227 C167.9241,1196.1637 167.9241,1196.1637 161.1871,1194.1367 C163.0971,1192.9867 165.0061,1191.8357 167.1871,1190.5227 L167.1871,1190.5227 Z M194.1171,1252.5317 C194.0381,1253.0407 193.9591,1253.5497 193.8801,1254.0597 C191.4361,1253.7917 188.9931,1253.5257 186.5491,1253.2587 C186.6601,1252.5017 186.7711,1251.7457 186.8821,1250.9887 C189.2931,1251.5017 191.7051,1252.0167 194.1171,1252.5317 L194.1171,1252.5317 Z M196.5061,1282.0927 C195.2901,1283.6287 194.0741,1285.1657 192.8581,1286.7037 C192.2301,1286.2717 191.6031,1285.8397 190.9751,1285.4077 C192.1011,1283.7537 193.2281,1282.1007 194.3551,1280.4477 C195.0721,1280.9957 195.7891,1281.5437 196.5061,1282.0927 L196.5061,1282.0927 Z M208.1611,507.5067 C208.5791,511.0787 214.1631,513.7567 208.4541,518.4937 C206.2831,515.8967 208.7671,509.5417 203.2001,509.8357 C204.7291,509.1187 206.2981,508.3817 208.1611,507.5067 L208.1611,507.5067 Z M158.8761,1158.2877 C155.4501,1159.1597 151.9911,1160.0377 148.5311,1160.9167 C148.2411,1160.3707 147.9511,1159.8267 147.6611,1159.2807 C151.3781,1156.8047 155.0951,1154.3297 158.8121,1151.8557 C159.2321,1152.3507 159.6521,1152.8457 160.0721,1153.3407 C159.6821,1154.9527 159.2921,1156.5637 158.8761,1158.2877 L158.8761,1158.2877 Z M146.3071,1198.9667 C148.1881,1198.4297 150.0681,1197.8927 151.9491,1197.3557 C152.0471,1198.1857 152.1451,1199.0147 152.2441,1199.8447 C150.2651,1199.5517 148.2861,1199.2597 146.3071,1198.9667 L146.3071,1198.9667 Z M145.3701,1226.2117 C146.1751,1224.7877 146.9791,1223.3627 147.7841,1221.9367 C148.2691,1222.2697 148.7541,1222.6027 149.2381,1222.9357 C148.5191,1224.3157 147.8151,1225.7047 147.0121,1227.0347 C146.9881,1227.0757 145.9401,1226.4997 145.3701,1226.2117 L145.3701,1226.2117 Z M140.0151,1233.2497 C143.3401,1231.9567 146.6661,1230.6647 149.9931,1229.3717 C150.2261,1230.1967 150.4601,1231.0207 150.6941,1231.8447 C147.1501,1232.3217 143.6041,1232.7957 140.0151,1233.2497 L140.0151,1233.2497 Z M139.7701,1180.9457 C143.5231,1180.2937 147.2761,1179.6417 151.0291,1178.9897 C147.3851,1182.7397 143.8591,1184.2927 139.7701,1180.9457 L139.7701,1180.9457 Z M132.4711,1169.6497 C134.4461,1170.0607 136.4221,1170.4727 139.9541,1171.2077 C135.5841,1174.8007 133.7961,1173.4027 132.4711,1169.6497 L132.4711,1169.6497 Z M146.8541,1169.4727 C146.7571,1170.3577 145.1341,1171.0747 144.2151,1171.8697 C143.5681,1170.9207 142.9031,1169.9857 142.2791,1169.0227 C141.0991,1167.1997 139.9421,1165.3617 137.9201,1162.1867 C144.8861,1162.3407 147.3921,1164.5707 146.8541,1169.4727 L146.8541,1169.4727 Z M134.9881,1199.0937 C131.8131,1197.2777 128.6391,1195.4607 125.3311,1193.5697 C128.3741,1190.0287 132.0191,1187.2377 137.9161,1188.8987 C136.8541,1192.5927 135.9191,1195.8437 134.9881,1199.0937 L134.9881,1199.0937 Z M118.0071,1091.1087 C114.1171,1089.0847 114.0221,1092.1107 111.8951,1094.7857 C111.6931,1092.1657 111.0181,1090.2947 111.5541,1088.8837 C112.5101,1086.3677 114.0951,1084.0887 115.4651,1081.7297 C118.5821,1083.5747 121.6641,1085.4677 124.9991,1087.5177 C123.8541,1091.2927 119.9561,1092.1227 118.0071,1091.1087 L118.0071,1091.1087 Z M106.2801,1102.3377 C106.1911,1101.8107 106.1021,1101.2837 106.0141,1100.7547 L115.7491,1098.9587 C115.8711,1099.7647 115.9931,1100.5717 116.1141,1101.3777 C112.8361,1101.6987 109.5581,1102.0177 106.2801,1102.3377 L106.2801,1102.3377 Z M103.3881,1094.9697 C103.0931,1086.8667 108.9291,1083.8257 113.9341,1077.0807 C114.4251,1078.6077 114.9151,1080.1347 115.4071,1081.6617 C111.6951,1085.7717 107.9631,1089.9047 103.3881,1094.9697 L103.3881,1094.9697 Z M101.1131,1094.0077 C98.9711,1094.1947 96.7631,1094.4837 94.5471,1094.5547 C91.5471,1094.6517 88.0491,1094.7957 87.4801,1090.9467 C86.9351,1087.2617 90.1141,1085.9547 93.0271,1085.0087 C94.2421,1084.6157 95.5941,1084.6447 97.6481,1084.3837 C93.1671,1090.1287 102.8721,1088.8487 101.1131,1094.0077 L101.1131,1094.0077 Z M73.7391,1105.7937 C74.1091,1103.6377 74.4781,1101.4827 74.9101,1098.9607 C78.1071,1097.9027 81.4071,1096.4827 84.8531,1095.8367 C86.1471,1095.5947 87.7621,1097.0627 89.2521,1097.7797 C89.1011,1097.9067 88.9481,1098.0197 88.7831,1098.0427 C82.9241,1098.8827 77.4961,1100.5217 73.7391,1105.7937 L73.7391,1105.7937 Z M78.4401,1058.6047 C81.9951,1056.8367 84.9801,1058.8397 88.0301,1063.5707 C81.6951,1065.4777 75.5801,1067.3197 69.3181,1069.2047 C69.2261,1063.3307 74.1091,1060.7567 78.4401,1058.6047 L78.4401,1058.6047 Z M60.3731,1057.9907 C60.0611,1057.3667 59.7491,1056.7437 59.4371,1056.1207 C61.2311,1055.2457 63.0261,1054.3707 64.8201,1053.4957 L65.7801,1055.3887 L60.3731,1057.9907 Z M54.8611,1032.9227 C54.6211,1032.6487 55.8761,1031.0637 57.0351,1029.0557 C58.5231,1031.2467 59.6001,1032.5197 60.2451,1033.9827 C60.4271,1034.3967 59.3481,1035.3667 58.8481,1036.0807 C57.4791,1035.0627 55.9611,1034.1767 54.8611,1032.9227 L54.8611,1032.9227 Z M43.6261,1004.8737 C44.0161,1003.9967 44.4061,1003.1207 44.7961,1002.2447 C47.5671,1003.4727 50.3391,1004.7007 54.9341,1006.7367 C48.6121,1009.3747 45.7221,1008.3387 43.6261,1004.8737 L43.6261,1004.8737 Z M49.6531,1036.0867 C49.7491,1036.8587 48.1041,1037.8477 46.3881,1038.8207 C48.3551,1031.9397 45.3621,1027.6037 40.2831,1024.2387 C38.0081,1025.6617 35.7331,1027.0857 33.4581,1028.5107 C34.9011,1029.5727 36.3441,1030.6327 38.3971,1032.1437 C33.4011,1035.3957 28.7261,1034.4117 22.6851,1033.3197 C25.7791,1029.3247 27.6741,1025.9587 32.6441,1027.6457 C33.2261,1024.8537 33.8081,1022.0607 34.7171,1017.6937 C38.2121,1017.3407 42.4951,1016.7107 46.7911,1016.6067 C47.9741,1016.5787 49.1941,1018.1197 50.3971,1018.9397 C49.3731,1020.3297 48.3481,1021.7177 47.3671,1023.0487 C48.1251,1027.1327 49.0941,1031.5837 49.6531,1036.0867 L49.6531,1036.0867 Z M30.3161,993.4877 C30.3731,994.0607 30.4291,994.6337 30.4861,995.2057 C28.7711,995.4427 27.0571,995.6787 25.3421,995.9137 C25.3181,995.1057 25.2941,994.2957 25.2701,993.4877 L30.3161,993.4877 Z M37.2301,987.1427 L30.9071,990.9717 C30.4331,990.1247 29.9591,989.2797 29.4851,988.4327 C31.6751,987.3157 33.8661,986.1987 36.0561,985.0807 C36.4481,985.7687 36.8391,986.4557 37.2301,987.1427 L37.2301,987.1427 Z M26.3831,957.4697 C30.8531,956.1507 35.3251,954.8307 39.9161,953.4757 C41.5031,957.4347 40.9611,960.4397 36.7451,959.4097 C33.7031,958.6667 31.2451,957.6707 28.4231,959.5767 C28.2891,959.6657 27.1521,958.2707 26.3831,957.4697 L26.3831,957.4697 Z M61.9581,920.4037 C59.0081,926.0897 59.0081,926.0897 52.2431,925.5627 C55.4261,923.8717 58.6011,922.1857 61.9581,920.4037 L61.9581,920.4037 Z M78.5831,1026.9467 C71.6321,1031.3527 67.8881,1031.2537 61.5951,1024.6397 C67.1681,1025.3967 72.7421,1026.1527 78.5831,1026.9467 L78.5831,1026.9467 Z M58.1351,857.3217 C62.0841,854.8557 65.2401,852.8847 68.4151,850.9017 C70.8321,853.7657 70.2681,855.4337 67.7601,857.6357 C64.6271,860.3867 62.1911,859.8427 58.1351,857.3217 L58.1351,857.3217 Z M74.9071,870.4317 C73.0201,877.5877 72.9481,877.5447 68.8351,880.1247 C68.9951,874.2537 69.0341,874.2727 74.9071,870.4317 L74.9071,870.4317 Z M86.9681,1048.8147 C85.7931,1057.5957 77.4121,1051.3017 73.8791,1054.9957 C77.1461,1045.7057 78.7391,1045.0417 86.9681,1048.8147 L86.9681,1048.8147 Z M84.5651,1041.2917 C78.4911,1043.1977 72.0381,1045.2497 65.5501,1047.1877 C65.1731,1047.2997 64.5171,1046.4787 63.9461,1046.0587 C64.5601,1043.0497 65.1761,1040.0307 65.7331,1037.3027 C71.7271,1041.0397 80.0181,1033.3507 84.5651,1041.2917 L84.5651,1041.2917 Z M94.3151,1061.5827 C96.9701,1063.2947 99.6241,1065.0067 103.6291,1067.5897 C99.7811,1068.5657 97.9441,1069.0317 95.7111,1069.5977 C94.7681,1067.2977 93.8751,1065.1237 92.9831,1062.9507 C93.4271,1062.4947 93.8721,1062.0387 94.3151,1061.5827 L94.3151,1061.5827 Z M121.2881,1064.0537 C121.8791,1070.9697 119.4081,1070.8657 114.7291,1069.1747 C117.0901,1067.3307 118.6761,1066.0927 121.2881,1064.0537 L121.2881,1064.0537 Z M2588.7011,1232.4097 C2584.9901,1231.2237 2583.0361,1229.5797 2582.8321,1225.6267 C2582.3191,1215.6537 2577.9271,1206.7007 2574.8721,1197.4347 C2572.6541,1190.7097 2570.4861,1183.5787 2564.3851,1181.0717 C2563.9261,1175.3627 2565.2041,1169.4287 2562.8311,1166.8477 C2559.2591,1162.9607 2562.6331,1158.8027 2561.0751,1156.6867 C2556.8561,1150.9577 2564.3151,1150.3157 2564.0161,1146.8837 C2561.5151,1138.4527 2559.2771,1129.9527 2557.1911,1121.4157 C2557.0091,1120.6717 2557.5691,1119.3037 2558.2161,1118.8697 C2563.4841,1115.3297 2560.8421,1112.6437 2557.6051,1109.5747 C2553.0191,1105.2267 2550.4141,1100.1317 2552.6061,1093.4987 C2553.0841,1092.0537 2552.7731,1090.2477 2552.4901,1088.6687 C2551.2351,1081.6517 2549.1941,1074.7037 2548.6921,1067.6417 C2548.0621,1058.7757 2543.1601,1050.7757 2544.0501,1041.6317 C2544.1901,1040.1967 2542.0981,1038.4077 2540.8061,1036.9927 C2535.4341,1031.1077 2527.6461,1026.2187 2533.5171,1016.2297 C2534.3371,1014.8337 2534.1081,1011.7777 2533.0891,1010.5297 C2528.9351,1005.4377 2530.3001,999.2627 2528.9611,993.6487 C2528.3121,990.9237 2527.3401,987.5357 2525.3291,986.0347 C2521.4711,983.1547 2519.7261,979.7227 2519.1651,975.1987 C2517.9971,965.7537 2516.6781,956.3277 2515.4251,946.8937 C2515.1321,944.6867 2515.5771,941.9747 2514.4461,940.3567 C2509.6281,933.4667 2508.0031,926.0787 2510.5021,918.1797 C2501.6981,915.6277 2500.7721,914.2777 2502.9201,906.5447 C2504.7041,900.1247 2502.7021,894.3797 2498.6871,890.0647 C2495.5751,886.7197 2494.0591,884.0457 2496.1991,880.5067 C2494.2901,879.6937 2492.9941,879.1417 2492.6761,879.0057 C2494.9181,873.1827 2498.2941,868.2657 2498.4151,863.2687 C2498.6381,854.0037 2497.2081,844.7447 2501.1911,835.8427 C2501.6501,834.8157 2500.5861,833.1347 2500.2991,831.7427 C2499.4861,827.8087 2496.8731,822.9537 2498.2891,820.1137 C2501.5651,813.5377 2498.8901,808.2417 2497.6941,802.2197 C2496.3691,795.5487 2493.0351,788.8567 2495.8701,781.7687 C2498.7471,774.5727 2500.0061,767.2507 2498.7401,759.4547 C2497.6011,752.4407 2504.1291,745.3117 2498.5951,738.2007 C2498.1571,737.6377 2498.4851,736.3227 2498.7111,735.4197 C2500.9981,726.3037 2504.6911,717.3697 2501.3221,707.6447 C2500.9091,706.4537 2502.2651,704.5797 2502.9531,703.0917 C2504.4801,699.7877 2506.1041,696.5277 2507.8001,693.0197 C2506.7011,691.5997 2505.7151,689.2137 2504.7091,689.2047 C2498.1051,689.1457 2497.2321,682.9627 2493.8531,679.5517 C2491.2481,676.9227 2490.9651,673.7527 2492.6331,670.3587 C2493.7531,668.0807 2494.6141,665.6757 2495.8511,662.7007 C2489.8821,661.6337 2484.5631,660.6817 2479.1451,659.7117 C2478.9931,656.9967 2478.8251,653.9867 2478.5971,649.9277 C2476.8651,653.8137 2475.6671,656.4997 2473.5861,661.1687 C2473.5861,654.3017 2473.6221,649.7237 2473.5661,645.1467 C2473.5471,643.6477 2473.6931,641.0507 2473.0761,640.8227 C2466.7461,638.4927 2468.4781,632.1357 2468.8641,628.7687 C2469.6601,621.8127 2466.0491,617.3657 2462.4221,613.3227 C2457.5061,607.8417 2452.7291,602.2727 2447.9931,596.6417 C2446.5281,594.9007 2443.9571,594.0867 2441.2711,592.4747 C2442.9771,587.4647 2441.8141,582.8497 2436.1481,579.9487 C2435.1101,579.4167 2434.4351,577.9517 2433.8571,576.7867 C2430.8721,570.7657 2427.7291,564.9677 2420.7871,562.5177 C2419.7671,562.1587 2418.2221,560.6897 2418.3621,560.0497 C2419.6161,554.3197 2413.5781,554.0377 2410.5581,550.2677 C2413.4521,548.0757 2415.8381,546.2677 2418.4461,544.2907 C2416.7781,542.9637 2415.1751,541.6877 2412.5611,539.6077 C2416.6871,538.6347 2419.5111,537.9677 2424.0641,536.8927 C2418.0021,535.8027 2413.9351,535.0707 2408.7701,534.1417 C2410.2271,527.5377 2405.9131,525.1987 2401.5221,522.4087 C2398.2581,520.3357 2395.7961,516.9867 2393.0281,514.1567 C2390.7511,511.8287 2388.5471,509.4277 2386.3121,507.0587 L2386.1901,507.0587 C2387.3041,504.5647 2390.1371,501.8727 2386.8271,499.5197 C2385.1231,498.3097 2382.0931,498.6947 2379.6871,498.8187 C2377.1821,498.9477 2374.7051,499.6317 2372.1801,500.0797 C2371.9511,497.9877 2371.7881,496.4997 2371.2701,491.7807 C2367.3021,501.1407 2363.3181,495.4757 2359.5391,495.6517 C2354.8391,495.8707 2351.6731,496.2457 2353.4751,490.1157 C2351.9831,489.7437 2350.3131,488.7447 2349.0331,489.1107 C2344.3781,490.4417 2344.4331,490.6067 2341.0431,488.0607 C2340.3841,487.5657 2339.6701,486.7807 2338.9681,486.7657 C2333.8621,486.6537 2328.7521,486.7047 2323.6591,486.7047 C2323.3301,484.1457 2323.1001,482.3537 2322.9051,480.8337 C2320.6381,480.8337 2318.1121,481.5797 2317.3081,480.7187 C2309.6191,472.4877 2298.7661,469.6067 2289.4761,464.1657 C2284.5291,461.2687 2277.8421,461.3627 2272.8521,458.5107 C2265.7201,454.4347 2259.4791,448.8197 2252.7541,444.0067 C2247.5571,440.2877 2242.1641,436.8447 2236.9241,433.1837 C2229.6921,428.1297 2222.5281,422.9777 2215.3161,417.8957 C2214.8011,417.5327 2214.1321,417.3887 2213.5611,417.1527 C2210.8841,417.9397 2208.2391,418.7177 2205.7511,419.4487 C2204.6941,416.5027 2204.1781,414.1797 2203.0581,412.1977 C2202.0031,410.3307 2200.3931,407.5017 2198.8831,407.4087 C2194.4431,407.1337 2199.5271,402.7647 2196.2571,402.3757 C2194.0151,402.1097 2191.8291,401.2037 2189.5911,401.0847 C2184.4921,400.8127 2184.1211,396.5987 2182.9181,393.9147 C2179.4341,392.5037 2175.8281,391.9547 2173.5321,389.9247 C2168.7821,385.7287 2165.0391,380.3917 2160.2751,376.2147 C2157.3081,373.6147 2155.4671,368.7667 2150.1611,369.5777 C2150.1431,369.5807 2150.1261,369.5847 2150.1101,369.5887 C2145.6571,366.5057 2141.3151,361.2197 2136.6271,360.8917 C2125.9351,360.1457 2117.7531,349.7407 2106.2141,353.6837 C2105.7731,353.8337 2104.8911,353.3137 2104.4871,352.8617 C2098.5981,346.2877 2089.1631,347.9887 2082.6391,343.3507 C2083.3831,340.7647 2084.1491,338.0967 2085.1821,334.5067 C2081.9291,336.4727 2079.6481,337.8507 2075.8901,340.1217 C2077.1331,335.0977 2077.8541,332.1807 2078.5701,329.2867 C2072.1641,328.2357 2072.1641,328.2357 2068.7111,323.7337 C2069.9261,323.2497 2071.1411,322.7667 2073.1921,321.9507 C2070.3401,320.7507 2068.5431,319.9957 2065.7621,318.8267 C2066.9111,320.8977 2067.4851,321.9337 2068.0591,322.9697 C2066.4731,322.5207 2064.2861,322.5837 2063.3951,321.5407 C2056.8821,313.9157 2047.8201,312.7567 2038.8191,310.5087 C2027.1211,307.5877 2015.9971,303.3297 2008.0431,292.8467 C2004.9801,288.8107 2000.6411,283.6687 1993.5801,285.0877 C1992.3451,285.3357 1990.7591,283.8347 1989.3151,283.1317 C1990.3961,280.6777 1992.5111,278.3887 1989.0941,276.3497 C1987.1431,275.1857 1985.0091,272.6757 1983.3531,272.9727 C1978.2031,273.8987 1974.9591,270.3217 1970.8281,268.9467 C1967.1811,267.7327 1963.3871,266.9627 1958.5151,265.7017 C1956.9451,263.2027 1954.5491,259.7397 1952.5691,256.0537 C1951.8311,254.6807 1948.0841,243.7727 1947.2581,243.4467 C1938.1021,239.8337 1931.9231,230.9627 1921.7221,229.1307 C1919.1041,228.6607 1916.2751,227.8247 1914.1981,226.2787 C1911.7261,224.4377 1909.2131,224.3907 1906.5621,223.6847 C1900.4511,222.0577 1894.9661,218.0757 1888.8111,214.8297 C1888.3411,214.9017 1886.3791,215.8687 1885.2051,215.2757 C1879.2421,212.2707 1873.2401,209.1927 1867.4231,206.0187 C1860.7031,202.3507 1852.8641,199.8627 1845.5181,196.8277 C1842.6221,195.6307 1839.4731,195.0137 1836.4091,194.2577 C1834.0791,193.6837 1831.7001,193.3067 1829.3421,192.8427 C1829.8761,190.6237 1830.4091,188.4057 1830.9291,186.2417 C1826.4771,185.1707 1821.9601,185.0167 1818.4381,183.0687 C1806.0541,176.2197 1793.7851,169.2997 1779.6941,166.4517 C1777.8921,166.0877 1775.6911,165.4927 1774.6011,164.2157 C1770.9561,159.9457 1766.0271,158.7647 1761.1961,158.1797 C1761.0011,155.9937 1761.4211,153.4077 1760.6121,152.9377 C1757.6711,151.2287 1754.3801,149.3797 1751.1071,149.1417 C1744.5901,148.6657 1739.7591,145.4897 1735.4531,141.4957 C1729.5501,143.7397 1723.8711,145.8987 1716.8131,148.5817 C1717.2111,144.2257 1717.4561,141.5527 1717.7131,138.7277 C1713.4291,136.8447 1708.7701,134.7957 1704.1111,132.7467 C1699.7341,138.0027 1696.1321,126.7417 1692.1311,132.8997 C1690.5571,129.8397 1689.3611,127.5157 1688.5981,126.0317 C1684.0381,125.3987 1677.4701,125.9367 1676.7181,124.0987 C1674.8411,119.5087 1667.5771,122.6717 1667.8911,116.7657 C1661.5281,119.7047 1659.2231,113.9087 1655.4641,110.6277 C1651.6601,111.8407 1647.8941,113.0417 1643.2961,114.5087 C1645.0661,111.7517 1646.1101,110.1267 1647.1531,108.5017 C1642.1951,112.7337 1634.0121,102.1477 1631.4941,113.0867 C1626.3871,103.3267 1618.1111,106.5967 1611.1021,106.2127 C1604.3331,98.4007 1597.5581,90.4967 1586.9071,89.1037 C1577.2571,87.8417 1567.6431,83.6787 1557.8761,86.9727 C1556.0871,85.3417 1554.1821,82.1327 1552.2391,82.1097 C1546.4461,82.0437 1544.3891,78.6457 1542.0191,74.3137 C1540.4401,71.4277 1537.0161,67.1787 1534.8511,67.4207 C1527.7761,68.2107 1525.5951,63.6287 1523.2071,59.1917 C1520.2471,58.8587 1517.6691,58.5677 1514.4931,58.2087 C1517.5821,49.3477 1504.4181,52.5137 1505.5701,44.9997 C1500.7741,42.4117 1495.9771,39.8237 1491.0731,37.1777 C1491.4041,36.1167 1491.7791,35.2027 1491.9611,34.2517 C1492.1681,33.1737 1492.2021,32.0637 1492.4751,29.3337 C1487.7531,32.7927 1484.6531,40.8247 1479.0971,31.4337 C1482.3301,29.3977 1485.4761,27.4157 1488.6221,25.4347 C1482.9111,26.5417 1476.0911,24.0687 1472.2651,30.3967 C1458.0151,16.9527 1440.0931,12.5017 1421.4821,9.7137 C1421.1571,8.0027 1420.8361,6.2907 1420.4591,4.2867 C1414.6851,10.0027 1414.6851,10.0027 1405.1291,0.6457 C1398.1191,2.6807 1391.3961,4.8107 1384.5761,6.5597 C1378.2381,8.1847 1371.2231,8.1297 1367.8781,15.5847 C1367.4231,16.5977 1364.2861,16.4437 1362.3801,16.7637 C1354.2411,18.1297 1345.6041,17.3187 1338.6041,23.4077 C1337.0081,24.7947 1333.6151,24.2097 1331.0391,24.3397 C1329.8431,24.3997 1328.0511,23.3867 1327.5051,23.8987 C1322.1651,28.9087 1316.4441,25.8397 1310.6681,25.3617 C1306.6551,25.0287 1302.4521,26.2867 1298.4181,27.2037 C1296.1921,27.7087 1294.2211,29.3367 1291.9951,29.8397 C1279.1441,32.7417 1265.7341,33.4677 1253.7961,39.9107 C1252.7251,40.4887 1251.0911,40.6127 1249.9051,40.2817 C1246.2391,39.2587 1242.5291,37.1527 1240.0041,42.0927 C1232.2911,41.0747 1225.2161,44.2627 1217.8391,45.3027 C1205.2611,47.0767 1192.4891,47.4527 1179.8091,48.5417 C1176.0831,48.8627 1172.3931,49.6087 1168.6651,50.1627 C1168.7161,50.4527 1169.1261,51.2477 1168.8931,51.7387 C1168.0991,53.4127 1167.0771,54.9777 1166.2711,56.3627 C1164.4271,55.0877 1162.9011,54.0327 1161.3811,52.9817 C1158.2961,49.3827 1153.7961,49.0957 1151.1611,51.9707 C1148.2961,55.0977 1146.3131,53.3287 1143.6951,53.1717 C1142.4841,53.0997 1141.1811,54.5637 1139.8441,55.3777 C1141.1031,56.9217 1141.8671,57.8587 1142.9011,59.1267 C1132.6561,61.8877 1132.6561,61.8877 1130.2311,58.2597 C1121.1331,61.7507 1112.2211,65.1737 1103.2991,68.5717 C1103.0251,68.6757 1102.6201,68.3967 1102.3211,68.4737 C1093.5651,70.7207 1084.7891,72.8997 1076.0711,75.2877 C1069.7491,77.0177 1063.5341,79.1397 1057.2041,80.8377 C1055.6991,81.2417 1053.5601,81.2127 1052.3401,80.4187 C1045.6961,76.0967 1039.7901,79.6237 1034.7591,82.8677 C1030.6661,85.5057 1027.9271,84.2657 1024.9191,81.9707 C1023.8841,83.5017 1023.3211,84.3037 1022.7891,85.1237 C1018.3611,91.9527 1018.3701,91.9397 1010.9131,88.3447 C1010.1941,87.9977 1008.7141,87.6457 1008.6141,87.8347 C1006.4761,91.9067 1003.7931,89.8737 1001.1161,88.6627 C998.6911,87.5667 996.6321,88.9587 994.4291,89.3497 C986.6601,90.7267 978.3221,95.2897 970.8191,88.7287 C966.4831,91.1467 962.3211,93.4687 957.5041,96.1557 L957.5041,89.9087 C951.5781,87.2287 946.4841,88.3087 942.1171,92.2227 C933.2801,87.9997 932.1941,87.3367 929.1241,90.5517 C924.0101,95.9087 917.9091,97.7937 910.9731,98.9547 C908.3921,99.3867 906.1871,102.0557 903.8131,103.7237 C903.8091,103.7227 903.8041,103.7207 903.7991,103.7187 C902.5651,103.8387 900.3431,103.7447 900.2691,104.0967 C899.3581,108.4777 895.9261,108.3077 892.6531,108.8767 C887.5171,109.7697 882.4861,111.3617 877.3301,112.0377 C868.5521,113.1867 862.4671,122.6087 852.4781,119.9397 C851.7281,119.7397 850.6521,120.6287 849.7671,121.0877 C842.7311,124.7277 842.7341,124.7337 835.9611,118.3647 C833.5011,122.4927 831.2001,126.3517 828.1991,131.3867 C824.3821,126.4867 818.7271,128.7927 813.2261,129.1467 C804.8541,129.6837 795.5561,126.5457 789.3001,135.4397 C788.7041,136.2877 786.8391,136.1867 785.6191,136.6667 C781.5791,138.2587 777.5651,139.9147 772.3191,142.0417 C772.3891,142.0867 770.8181,141.0907 769.3661,140.1687 C759.3761,146.5787 752.8631,148.4917 732.9341,151.0877 C732.0301,151.2047 731.2271,151.9827 730.3411,152.3697 C727.7001,153.5207 725.1311,155.1517 722.3661,155.6367 C718.1841,156.3707 713.8071,155.9627 709.6091,156.6387 C703.0321,157.6977 696.4871,159.0637 690.0251,160.6847 C686.7111,161.5157 684.1251,161.8497 680.7141,159.9857 C673.7481,156.1797 664.9191,158.6167 659.9141,164.4277 C657.5561,167.1637 654.8061,169.5617 652.2341,172.1137 C651.5891,171.6257 650.9441,171.1387 650.2981,170.6507 C651.5871,168.3247 653.2081,166.1147 654.0711,163.6397 C654.9591,161.0907 655.1081,158.2847 655.8861,153.8487 C650.0701,159.5467 642.1451,159.9227 641.3341,167.8157 C634.5631,165.5597 628.4141,166.0767 622.7201,172.0047 C622.6161,169.7467 622.5371,168.0237 622.4621,166.4127 C618.6111,167.4687 614.8591,168.4727 611.1221,169.5337 C609.3481,170.0377 606.7421,170.1107 605.9911,171.3077 C601.7191,178.1037 596.5881,182.0857 588.0901,179.1197 C587.0621,178.7607 585.4621,179.5337 584.3051,180.1267 C576.7651,183.9947 569.2781,187.9637 561.7591,191.8717 C561.2341,192.1437 560.5861,192.1817 559.9941,192.3247 C559.2631,191.3037 558.5351,190.2867 557.6861,189.1027 C556.6981,190.8547 555.7551,192.5257 555.4171,193.1247 C547.4431,191.6067 540.3271,188.8807 533.4341,189.3587 C527.5701,189.7667 521.9501,193.8377 516.2521,196.3567 C515.1021,196.8647 513.4891,198.5047 513.1001,198.2237 C506.1841,193.2377 505.2791,201.0687 501.8331,203.3637 C495.3321,202.2057 489.9541,204.9917 486.7901,211.1577 C484.3581,215.8987 482.7991,216.1297 479.0661,212.2007 C478.1921,211.2807 477.5151,210.1727 477.1671,209.7097 C469.8771,213.2877 463.0591,216.6327 455.2411,220.4687 C453.2451,229.3677 443.8831,233.7447 436.1141,234.5467 C421.4321,236.0617 408.0761,240.2757 395.0521,246.4177 C386.9161,250.2537 379.0061,254.5647 370.1361,259.1027 C369.9411,258.9397 369.6131,258.6687 369.2761,258.4017 C368.6181,257.8817 367.9361,257.3917 367.5591,257.1097 C361.6461,258.9797 365.2181,267.8677 357.5371,268.8267 C358.3471,265.8697 358.9851,263.5377 360.0251,259.7377 C356.1551,260.7047 353.3961,261.3987 350.6341,262.0797 C348.1191,262.7017 345.6221,263.4407 343.0761,263.8927 C338.1851,264.7617 333.2531,265.3977 328.3681,266.2977 C327.5181,266.4537 326.2081,267.3687 326.1421,268.0357 C325.3331,276.1897 316.1841,282.5257 321.1371,292.0947 C322.1121,293.9787 320.6491,297.1227 320.2421,300.2017 C316.2391,299.5227 312.9421,299.3447 311.5681,303.8467 C310.6731,306.7807 308.8051,309.4177 307.9441,311.0827 C305.6501,312.1157 304.0491,312.8367 302.0861,313.7207 C303.9141,316.3277 305.2281,318.2037 305.7331,318.9237 C304.5431,324.3047 303.6251,328.5417 302.6611,332.7687 C302.2641,334.5067 302.2651,336.6407 301.2271,337.8717 C296.6171,343.3427 292.5761,350.0507 286.6831,353.5037 C277.6961,358.7687 276.4631,367.3257 275.1101,375.3807 C273.3241,386.0147 272.7891,396.7447 267.7121,406.6367 C266.8591,408.2977 268.4941,411.2347 268.9901,413.6317 C267.6701,414.9007 264.9071,416.4617 263.8021,418.8047 C258.0371,431.0227 252.5611,443.3837 247.2591,455.8107 C244.6331,461.9647 241.7021,467.4687 236.4681,472.1597 C231.0651,476.9997 223.2641,481.8707 229.0881,491.8207 C220.8301,489.8617 216.7731,492.3987 213.7251,500.5107 C219.9861,503.9757 219.9861,503.9757 215.6251,510.8047 C214.1051,508.1727 212.5231,505.4347 210.9271,502.6717 C206.0661,503.2977 203.5841,505.8417 202.4921,509.9147 C201.4361,510.7017 200.4711,511.6357 199.3241,512.2007 C189.6641,516.9607 180.2081,521.8287 178.8301,534.3257 C178.7301,535.2317 176.9861,535.8767 176.2251,536.8197 C175.7111,537.4557 175.5811,538.4017 174.8871,540.2577 C177.9331,540.9807 180.5311,541.5977 183.4561,542.2917 C183.0771,536.8537 184.1361,534.7587 189.5411,538.6577 C185.0541,543.1217 180.8041,547.3507 176.0301,552.1007 C180.3001,552.8477 183.5401,554.0097 183.9801,559.1817 C179.3971,557.8197 175.2741,554.8877 172.0561,559.7957 C172.9471,561.2407 173.7481,562.5397 174.4301,563.6437 C169.0151,568.2737 162.2751,570.3147 158.1871,576.2197 C154.1431,582.0607 149.4191,587.4327 144.9941,593.0097 C145.3171,597.6077 145.2261,602.3437 143.2331,606.0587 C140.5701,611.0257 132.9311,613.7037 136.9291,621.5157 C137.1131,621.8747 135.3241,623.3247 134.3671,624.1677 C132.7891,625.5587 131.1411,626.8677 129.4371,628.2817 C128.2191,627.3657 126.9801,626.4337 125.7281,625.4917 C123.1621,630.7077 126.5021,634.4027 128.5541,638.4567 C128.8591,639.0587 128.1461,640.1757 127.8591,641.2167 C125.9211,639.4047 124.2401,637.8327 121.5021,635.2737 C121.3981,643.7577 118.2081,651.0517 125.3891,656.2767 C122.0561,662.0187 114.9601,664.5497 115.1481,671.2387 C115.3621,678.8837 110.3661,680.5537 104.7311,681.9957 C104.3571,682.0917 103.7791,681.3917 102.5401,680.5467 C104.4561,679.3607 106.0821,678.3537 108.5581,676.8207 C106.1741,676.1397 104.7071,675.7207 102.8631,675.1937 C101.8621,678.0277 101.0141,680.4267 100.1331,682.9207 C101.9891,685.4477 107.0191,686.7317 103.2711,692.1807 C99.2531,690.3427 95.0731,688.4307 91.2801,686.6957 C90.9761,691.5167 91.8591,696.1307 90.1921,699.4737 C87.8111,704.2457 94.0421,705.7507 92.5921,710.0097 C90.3791,716.5087 89.1161,723.3307 87.4491,730.0167 C84.3831,724.2077 84.3831,724.2077 76.4241,720.8017 C78.3481,723.6937 80.2711,726.5867 82.1291,729.3807 C75.0501,731.3627 75.2691,731.3567 75.4571,738.1977 C75.5491,741.5267 74.6451,744.8827 74.1641,748.4357 C82.0071,758.0827 82.1011,762.4767 71.5011,767.6367 C73.3691,768.0577 75.2371,768.4757 78.6181,769.2297 C73.3701,775.2407 68.8431,780.4237 64.3461,785.5737 C70.9941,794.6167 70.9941,794.6167 71.6871,808.0927 C69.2461,809.2447 65.2991,808.5577 65.4171,812.8917 C65.5631,818.2247 60.1611,814.8457 58.8021,816.7227 C63.8581,821.3887 68.7221,825.8767 73.9121,830.6667 C70.5111,831.7727 67.1411,832.8697 63.4121,834.0827 C62.6981,837.3867 61.9771,840.7197 61.2571,844.0527 C61.9981,843.6077 62.7551,842.9837 63.4521,843.0447 C64.9681,843.1777 66.4391,843.8307 67.9291,844.2687 C67.0411,845.2497 66.3121,846.5037 65.2231,847.1427 C63.9551,847.8867 62.3721,848.0937 60.9251,848.5337 L61.2601,848.3497 C61.1481,848.2947 61.0371,848.2397 60.9251,848.1847 L60.9251,848.5067 C58.6261,849.5857 56.3281,850.6657 54.0271,851.7457 C55.2791,853.5397 56.5161,855.3127 58.1831,857.7027 C55.6631,858.3177 53.9661,858.7327 52.2701,859.1477 C58.0441,861.8087 55.5781,867.1457 56.8921,871.0177 C54.1381,872.3967 52.0501,873.4417 47.8331,875.5517 C53.5221,877.5047 56.8981,878.6637 62.6861,880.6507 C57.5511,881.6897 54.7501,882.2567 50.2431,883.1687 C53.6051,884.5717 55.1761,885.2257 56.8721,885.9337 C54.8311,890.8877 52.9291,895.5457 50.9761,900.1817 C50.7511,900.7147 50.2441,901.1287 49.8671,901.5987 C50.7681,901.9287 52.0871,901.9997 52.4841,902.6417 C53.4031,904.1267 53.8751,905.8887 54.9401,908.5737 C51.7151,907.8927 49.7681,907.4807 47.5641,907.0157 C47.4741,908.6747 47.4301,909.6377 47.3671,910.5987 C47.2881,911.8097 47.1931,913.0197 47.0921,914.4047 C39.4041,911.5847 34.7671,912.5827 32.1751,918.5357 C30.2841,922.8767 27.5221,924.5057 23.0441,925.4667 C25.4531,925.9877 27.8611,926.5077 30.4991,927.0777 C29.2091,932.4997 28.0331,937.4457 26.7891,942.6767 C29.9261,942.3017 32.2481,942.0237 33.9441,941.8207 C31.2481,947.2407 28.7341,952.2977 26.2201,957.3507 C20.7041,960.3877 14.0701,958.7757 8.0481,961.0407 C12.8471,970.4217 20.7361,961.9437 26.7691,965.6627 C25.9181,966.7077 25.2821,967.7197 24.4311,968.4957 C21.1641,971.4757 17.7131,974.2017 25.0141,976.6917 C25.9411,977.0077 27.8441,980.4167 24.3171,982.5987 C21.5291,984.3247 19.6501,987.5187 17.4071,990.1227 C19.1461,990.3067 20.9441,990.4957 23.5241,990.7677 C19.8361,994.6207 16.5891,997.6487 13.8081,1001.0557 C12.0721,1003.1817 11.3091,1007.7667 9.6481,1008.0017 C2.0421,1009.0807 3.9331,1015.8097 0.4581,1019.7637 C5.7471,1020.5357 9.9551,1021.1487 14.1621,1021.7627 C14.0971,1022.4387 14.0331,1023.1147 13.9681,1023.7907 C10.8301,1023.9717 7.6921,1024.1527 4.5541,1024.3327 C4.4761,1024.9647 4.3971,1025.5967 4.3191,1026.2287 C8.8101,1026.9587 13.3011,1027.6897 16.7121,1028.2447 C18.4491,1032.7277 19.8971,1036.4657 21.2571,1039.9777 C26.4611,1038.7497 30.4811,1037.6577 34.5701,1036.9697 C35.3141,1036.8447 36.3371,1038.3747 37.3141,1039.2107 C34.5991,1040.9357 32.3511,1042.3647 30.1021,1043.7917 C30.3871,1044.2597 30.6721,1044.7287 30.9571,1045.1967 C33.0491,1044.2337 35.1421,1043.2717 36.9741,1042.4287 C37.8291,1046.0007 38.6561,1049.4527 39.4701,1052.8517 C46.5001,1052.9857 51.2851,1046.7807 58.7621,1049.4867 C52.5781,1055.9037 47.9491,1062.6717 36.8691,1061.7867 C39.6501,1064.8047 41.1231,1066.4037 41.7471,1067.0797 C47.4211,1065.9427 51.9671,1065.0307 57.3231,1063.9557 C55.7321,1062.6017 54.9971,1061.9757 53.5491,1060.7417 L63.7581,1060.7417 C63.6061,1064.1887 63.4771,1067.1117 63.3021,1071.0967 C58.8421,1067.7467 55.8971,1066.5427 53.4041,1071.2087 C52.3901,1073.1057 50.3921,1074.4777 48.8421,1076.0877 L44.3921,1072.7367 C43.9731,1073.4367 43.5531,1074.1367 43.1331,1074.8377 C45.1351,1075.9567 47.1361,1077.0767 49.1381,1078.1947 C50.1771,1082.0997 46.4731,1086.2187 50.5561,1090.2027 C59.5031,1098.9327 69.2301,1106.4627 79.9371,1112.7307 C84.0631,1110.3247 87.6661,1108.2227 91.2691,1106.1207 C89.4411,1105.9937 87.6131,1105.8657 85.6691,1105.7297 C87.0971,1102.7367 88.2661,1100.2857 89.4241,1097.8577 C90.7551,1098.3787 92.0721,1098.9177 93.3901,1099.4567 C95.6191,1100.0287 97.8471,1100.5997 100.0751,1101.1667 C99.1281,1106.7917 94.8451,1111.3297 94.7901,1117.2957 C94.7851,1117.8547 93.3291,1118.3997 92.5461,1118.9517 L92.5441,1118.9517 C90.5081,1118.6207 88.4741,1118.2907 86.2071,1117.9227 C87.2201,1115.6787 87.8421,1114.3007 88.8381,1112.0947 C83.3111,1113.9657 78.7311,1115.5177 74.1311,1117.0757 C79.0551,1124.5057 80.5711,1125.0707 87.3811,1121.8417 C89.1661,1120.9957 90.8421,1119.9197 92.5681,1118.9507 C92.2191,1119.8047 91.8711,1120.6607 91.1451,1122.4397 C93.3041,1122.2557 94.9111,1122.3577 96.3531,1121.9177 C97.4531,1121.5827 98.3641,1120.5897 99.3231,1119.8417 C105.1341,1115.3067 105.1301,1115.3027 109.6991,1121.1367 C102.4351,1123.5937 94.9431,1126.1267 87.0861,1128.7847 C87.1751,1130.5507 87.2701,1132.4157 87.4111,1135.1837 C90.7811,1133.4157 93.2901,1132.0997 95.8001,1130.7837 C96.2201,1131.4637 96.6391,1132.1447 97.0581,1132.8257 C93.9011,1135.0277 90.7441,1137.2297 87.2781,1139.6477 C89.0701,1140.2507 95.3681,1143.6367 95.6891,1144.2007 C97.9341,1142.5647 100.1861,1140.9247 102.2341,1139.4327 C104.5521,1141.8497 106.3661,1143.7427 108.1801,1145.6337 C108.6531,1145.2937 109.1251,1144.9547 109.5981,1144.6147 C109.1251,1142.5537 108.6541,1140.4927 107.8901,1137.1597 C113.3951,1141.7507 113.3951,1141.7507 111.9891,1147.5117 C109.6231,1147.8957 107.1871,1148.2907 102.9851,1148.9727 C106.9301,1150.7797 109.2011,1152.3657 111.6711,1152.7867 C113.8361,1153.1547 116.2251,1152.2147 118.8821,1151.7957 C118.7391,1153.5247 118.5611,1155.6797 118.3891,1157.7707 C113.6511,1157.9827 109.4481,1158.1697 105.4321,1158.3497 C104.7241,1161.2127 104.2291,1163.2087 103.6321,1165.6217 C107.5851,1166.7967 110.9771,1167.8057 114.0911,1168.7307 C115.2111,1172.3457 116.2481,1175.6967 117.2871,1179.0467 C117.2751,1179.0517 117.2581,1179.0567 117.2491,1179.0597 C117.2471,1179.0597 117.2431,1179.0617 117.2421,1179.0617 L117.2431,1179.0617 L117.2421,1179.0617 C117.2601,1179.0737 117.2791,1179.0847 117.2981,1179.0967 C117.2961,1179.0817 117.2971,1179.0687 117.2961,1179.0527 C118.6381,1178.8517 119.9851,1178.6487 121.5661,1178.4107 C120.5511,1176.4547 119.8831,1175.1677 118.4411,1172.3907 C122.6231,1173.1817 125.5741,1173.1637 127.7981,1174.4257 C128.7681,1174.9757 128.2511,1178.1477 128.4411,1180.5287 C131.1871,1179.7837 133.7911,1179.0787 138.4111,1177.8257 C133.6691,1184.1037 129.2911,1187.9357 123.5871,1187.7817 C117.6271,1187.6197 116.1111,1190.1367 115.7971,1196.1257 C122.3151,1197.1377 128.6501,1198.1207 134.9851,1199.1047 L134.9821,1199.1137 C137.6941,1200.5647 140.4031,1202.0157 144.4371,1204.1767 C141.2071,1205.2567 138.8581,1205.9077 136.6431,1206.8667 C135.9661,1207.1597 135.6601,1208.3047 135.0601,1209.2577 C137.6831,1210.2617 139.9701,1211.1357 144.1481,1212.7337 C134.9671,1213.8537 132.9341,1219.4947 130.4811,1226.1557 C134.6431,1221.4327 137.2011,1223.7877 139.5331,1226.7497 C137.9001,1228.7497 136.2861,1230.7277 134.1631,1233.3277 L139.7071,1233.3277 C140.3721,1236.0667 141.0861,1238.8287 141.7061,1241.2267 C151.1921,1243.4127 153.4501,1232.4287 161.1971,1231.1267 C160.0931,1225.8827 163.4991,1220.0017 157.3261,1215.7847 C162.1011,1216.8687 167.2841,1213.4857 169.4841,1217.3187 C168.8351,1220.5787 168.3041,1222.4127 168.1461,1224.2807 C167.9981,1226.0407 168.2441,1227.8357 168.3161,1229.6157 C161.6831,1228.5507 161.0321,1237.4537 154.8061,1236.6177 C156.5041,1239.1537 157.6671,1240.8917 158.8311,1242.6297 C160.9711,1240.9527 163.1121,1239.2747 165.2521,1237.5967 C164.8211,1241.1917 160.3511,1243.5647 165.2111,1246.8717 C167.8091,1246.1257 170.4391,1245.3557 173.0851,1244.6447 C173.2741,1244.5947 173.5811,1244.9867 173.8471,1245.1807 C176.3391,1252.3727 169.0271,1250.9957 166.4581,1253.7887 C163.0651,1257.4787 159.2711,1257.0237 155.2121,1256.1217 C154.6601,1252.0927 154.1081,1248.0637 153.5561,1244.0347 L146.2071,1244.0347 C144.2451,1252.3747 151.7421,1252.5367 154.9971,1256.0757 C154.9641,1256.0677 154.9321,1256.0607 154.8991,1256.0537 C154.3141,1257.8987 153.7291,1259.7437 152.9501,1262.2017 C154.8751,1261.9887 156.7021,1262.2627 157.9911,1261.5557 C162.1921,1259.2527 165.5131,1262.4947 169.2151,1263.0847 C170.0311,1263.2147 171.3671,1265.4437 171.0811,1266.0157 C170.4531,1267.2737 168.8411,1269.0117 167.8101,1268.8997 C165.4931,1268.6467 163.2861,1267.3847 161.0321,1266.5387 C159.4311,1265.9397 157.8261,1265.3497 156.2221,1264.7557 C155.9351,1265.2367 155.6491,1265.7167 155.3621,1266.1987 C157.0591,1267.9527 158.7551,1269.7057 160.7571,1271.7767 C157.8421,1272.2657 155.4941,1272.6597 153.1461,1273.0537 C153.1471,1273.5347 153.1481,1274.0137 153.1491,1274.4947 C158.2871,1275.8417 163.4251,1277.1907 168.1071,1278.4187 C169.5401,1284.7647 170.7621,1290.1757 171.9711,1295.5317 C169.7251,1296.8757 167.7241,1298.0747 165.7231,1299.2727 C165.8901,1299.6207 166.0571,1299.9687 166.2231,1300.3177 C169.0041,1299.7877 171.7851,1299.2587 174.7361,1298.6977 C173.7571,1300.9127 172.9071,1302.8337 172.2101,1304.4127 C178.0141,1309.9847 183.4031,1306.6957 189.3581,1303.8117 C189.8531,1306.4457 191.0611,1308.8557 190.3301,1309.8677 C189.0171,1311.6857 186.5401,1312.6637 183.1341,1314.9407 C187.7601,1317.2507 191.3541,1319.1797 195.0611,1320.8607 C198.8171,1322.5637 202.6851,1324.0207 206.5031,1325.5847 C207.0821,1326.2827 207.6611,1326.9797 208.2401,1327.6767 C205.8971,1328.4317 203.5541,1329.1877 201.2111,1329.9427 C201.7011,1330.4127 202.1901,1330.8827 202.6801,1331.3537 C206.2571,1331.8047 209.8341,1332.2557 215.6691,1332.9917 C211.6501,1334.8607 209.6231,1335.8027 205.4771,1337.7307 C210.3711,1338.2807 212.7821,1338.5517 215.3021,1338.8347 C215.1521,1340.5527 214.8691,1342.9707 214.9511,1342.9827 C221.0031,1343.9017 218.9041,1349.1747 220.3851,1352.5737 C221.8821,1356.0087 224.1031,1359.2297 226.5261,1362.1067 C227.3471,1363.0807 229.7611,1362.6757 231.4321,1362.9817 C235.7961,1363.7777 237.3331,1368.0567 234.4961,1371.8217 C233.4561,1373.2017 231.9931,1374.2607 230.5261,1375.6527 C238.8911,1380.2647 238.8941,1380.2777 233.2761,1383.8937 C234.5811,1386.5897 235.8921,1389.2947 237.2051,1392.0047 C242.6571,1391.6067 241.5571,1386.9887 243.1331,1383.4407 C244.8031,1387.4087 246.4721,1391.3747 248.3721,1395.8897 C244.8691,1397.2867 241.1241,1398.7787 237.2431,1400.3257 C239.2491,1401.9347 241.5141,1403.5847 243.5711,1405.4627 C244.8831,1406.6617 246.2051,1408.0407 246.9701,1409.6097 C248.9811,1413.7287 250.6901,1417.9947 253.1551,1423.6657 C252.9531,1424.2937 250.7411,1427.6097 251.6201,1429.0827 C254.6441,1434.1517 250.2191,1442.1357 258.2261,1445.2877 C259.4921,1445.7877 259.5481,1449.3557 260.1641,1451.5057 C260.1641,1451.5097 260.1641,1451.5377 260.1641,1451.5377 C260.1711,1451.5297 260.1781,1451.5207 260.1851,1451.5117 C260.1781,1451.5097 260.1721,1451.5087 260.1651,1451.5067 C260.1861,1445.2937 263.4131,1440.8297 267.4171,1437.2867 C271.5621,1438.6827 275.1941,1439.9067 278.8231,1441.1287 C279.2681,1444.3167 280.0561,1447.5087 280.0271,1450.6937 C280.0111,1452.4117 280.0941,1455.5177 276.5481,1454.5797 C277.0691,1456.9857 275.5211,1459.7967 279.0611,1461.7067 C280.5431,1462.5057 280.4291,1466.2957 281.0021,1468.7347 C281.7511,1471.9197 282.6151,1475.0877 283.1441,1478.3107 C283.6721,1481.5277 285.2221,1486.7677 283.9171,1487.6787 C280.2041,1490.2727 283.3081,1492.5777 282.7781,1494.6457 C281.9171,1498.0067 279.2001,1500.8607 277.4741,1504.0397 C274.2361,1510.0027 274.9971,1512.0797 280.4711,1515.0807 C283.8381,1516.9277 286.8891,1519.3497 290.0791,1521.5197 C290.8551,1522.0467 291.6181,1522.5947 291.8781,1522.7777 C294.8451,1521.6527 297.3441,1520.7047 300.0621,1519.6747 C300.7801,1527.8697 290.5801,1525.9907 290.6981,1533.9657 C293.8291,1535.6457 297.2871,1538.3627 301.1911,1539.3977 C307.3941,1541.0407 311.4681,1546.4527 312.3461,1550.6047 C314.0011,1558.4357 319.4311,1560.1817 325.2801,1562.9127 C324.7341,1565.1467 324.2291,1567.2097 323.7271,1569.2617 C331.3471,1570.6307 331.4171,1580.9307 339.0241,1582.4747 C339.1171,1582.4937 339.0541,1583.0757 339.1361,1583.3737 C341.4171,1591.6207 342.9061,1595.1667 345.1001,1596.9907 C349.3221,1600.4987 353.1211,1605.5687 357.9761,1606.9927 C363.6561,1608.6577 365.8461,1612.3437 368.6481,1616.3757 C374.2211,1624.3947 379.3741,1632.8377 386.3901,1639.6347 C389.4951,1642.6437 392.7271,1644.7107 391.8991,1649.6347 C391.8131,1650.1497 393.2521,1650.9197 393.9831,1651.5707 C389.7471,1648.0897 385.7681,1650.2377 380.8031,1651.7247 C381.5221,1654.0917 382.1331,1656.1017 382.7161,1658.0207 C382.7551,1656.2057 383.6431,1654.8707 386.1431,1654.2807 C388.9091,1653.6277 391.5891,1652.6117 394.3051,1651.7557 L394.3051,1651.7557 L403.5261,1651.7557 C403.2231,1653.4557 402.8631,1655.4787 402.5021,1657.5007 C398.5541,1655.9017 399.2791,1663.6717 394.2291,1661.3047 C391.1771,1659.8727 387.2271,1660.3527 383.6041,1660.1367 C389.0531,1663.9667 394.2231,1668.2457 401.5001,1668.3437 C404.8891,1668.3897 407.9361,1669.5467 408.7461,1673.7207 C409.1201,1675.6497 410.3291,1677.2377 412.2041,1674.7927 C411.5251,1678.1677 410.8511,1681.5897 410.0271,1685.7697 C412.6331,1685.1027 414.5821,1684.6037 416.7861,1684.0397 C418.1991,1688.1017 419.4741,1691.7647 420.7651,1695.4757 C418.9461,1698.0447 417.2621,1700.4237 415.6461,1702.7067 C417.1671,1705.4457 418.4791,1708.1177 420.0691,1710.6137 C424.7171,1717.9107 426.7571,1718.4187 435.1691,1715.3187 C436.2631,1714.9147 437.8461,1715.8397 439.9781,1716.3277 C437.6591,1719.2717 435.9971,1721.3807 433.7241,1724.2657 C439.1421,1722.9397 439.2771,1722.9487 447.0041,1725.9567 C447.5411,1729.3827 445.0001,1729.6507 442.6931,1729.7397 C439.0901,1729.8767 436.1741,1730.6247 435.7121,1734.6247 C438.7771,1735.1217 441.6491,1735.5857 444.5211,1736.0507 C444.4761,1736.8017 444.4311,1737.5537 444.3851,1738.3047 C439.3161,1738.9277 434.2471,1739.5507 427.1171,1740.4267 C431.7091,1742.3107 434.4671,1743.4417 437.2911,1744.5987 C436.8441,1747.2797 436.4651,1749.5507 436.0521,1752.0207 C439.8371,1751.0457 442.7411,1750.2967 445.6451,1749.5487 C442.7921,1745.7067 445.2941,1744.7397 448.5121,1743.5787 C450.9841,1742.6857 453.1541,1740.9557 455.3581,1739.6587 C459.7671,1746.8737 450.3771,1745.4007 450.2101,1750.3217 C453.0951,1750.8127 455.9041,1751.2917 458.7141,1751.7707 C456.8321,1753.4817 455.0721,1753.9377 453.2861,1754.0827 C449.6741,1754.3777 445.8841,1753.9237 442.4821,1754.8877 C439.8361,1755.6387 435.1081,1754.6047 435.3721,1759.8617 C435.6331,1765.0687 439.9661,1763.4137 442.8271,1764.2727 C443.3371,1764.4257 443.7331,1764.9577 443.5691,1764.8277 C443.5691,1767.5617 442.7801,1770.2207 443.7101,1771.9627 C447.1111,1778.3277 452.7051,1781.2227 460.2811,1779.7477 C464.4211,1794.5927 476.2231,1793.9617 487.4451,1793.5627 C488.9471,1801.9137 488.7621,1803.9197 486.1711,1809.2367 C487.4961,1810.0377 489.8181,1810.6687 489.9871,1811.6657 C491.1691,1818.6467 493.5281,1825.9907 492.3371,1832.6507 C491.1161,1839.4757 492.9921,1842.9257 499.3801,1845.5057 C496.7451,1848.0127 494.9791,1849.6917 492.3891,1852.1567 C495.6251,1853.0627 497.9901,1853.7247 501.4971,1854.7067 C499.2531,1857.8557 493.4741,1860.4417 499.1631,1864.0787 C499.9981,1865.7387 500.5051,1867.8027 501.8221,1868.8487 C506.4461,1872.5197 506.4971,1874.8637 500.5061,1876.7187 C499.9141,1876.9027 500.0601,1879.4727 499.7721,1881.6247 C505.4401,1877.7327 510.1551,1874.4957 514.5571,1871.4727 C517.3431,1873.8007 515.0241,1877.8707 519.5941,1877.5897 C521.9341,1877.4467 524.3741,1878.9377 526.7751,1879.7887 C522.7851,1882.4977 521.4161,1886.4647 521.2851,1891.1737 C522.9871,1890.7957 524.5261,1890.4547 526.8941,1889.9297 C525.9951,1893.2167 531.6021,1897.5667 524.0531,1898.7987 L523.9251,1898.7297 C523.9301,1898.7837 523.9351,1898.8367 523.9391,1898.8907 C523.9631,1898.8767 523.9871,1898.8637 524.0101,1898.8497 C525.7891,1901.3627 527.5681,1903.8757 529.4531,1906.5377 C530.5311,1906.3487 532.3311,1906.0317 536.5451,1905.2877 C532.3701,1908.3697 530.1641,1909.9967 527.0601,1912.2877 C531.2191,1914.3727 533.5181,1915.5257 535.8181,1916.6737 C535.4351,1918.1697 535.0521,1919.6697 534.9761,1919.9677 C540.6141,1923.5897 548.0721,1925.7347 550.0201,1930.2517 C552.9611,1937.0727 557.7791,1939.7527 563.3941,1942.4577 C568.7631,1945.0437 573.2441,1947.9837 577.0731,1953.1717 C581.6721,1959.4047 588.3361,1964.4387 594.9331,1968.7187 C597.7821,1970.5677 601.7881,1970.2837 601.7271,1975.0547 C603.2701,1974.9717 604.8131,1974.8887 606.7541,1974.7847 C603.7981,1982.3477 610.4751,1985.2107 613.7901,1990.9997 C620.9931,1989.2777 628.6431,1988.4367 635.4291,1985.5607 C643.1081,1982.3057 650.3581,1979.5907 658.9221,1980.9267 C661.4491,1981.3207 664.4621,1979.2987 667.0981,1978.0567 C668.8711,1977.2217 670.2201,1975.2337 672.0221,1974.7567 C681.8441,1972.1587 691.7501,1969.8757 701.6231,1967.4697 C704.5131,1966.7657 707.4461,1966.1757 710.2631,1965.2427 C715.5801,1963.4807 720.7811,1961.3637 726.1161,1959.6627 C730.8301,1958.1617 735.3961,1954.2057 740.6971,1958.2467 C740.8471,1958.3597 741.3251,1958.1007 741.6211,1957.9547 C745.8061,1955.8897 750.0201,1953.8777 754.1511,1951.7077 C755.8831,1950.7987 757.4221,1948.6217 759.0701,1948.5997 C769.7951,1948.4537 777.5881,1939.6487 788.2791,1939.1297 C791.8021,1938.9587 795.1271,1935.9067 798.6601,1934.4577 C802.0221,1933.0797 807.0031,1930.0667 808.6971,1931.3017 C812.8871,1934.3567 816.3391,1931.9057 820.0631,1932.0117 C826.3641,1932.1917 832.5401,1929.8967 839.0391,1932.7287 C844.4641,1935.0917 844.8021,1934.3167 848.3651,1926.2717 C849.7391,1927.8367 850.8931,1929.1507 851.7921,1930.1757 C861.1231,1924.5937 870.3581,1919.0807 881.9931,1920.9637 C883.4951,1921.2067 886.1141,1921.3667 886.4971,1920.6487 C890.3051,1913.5187 895.9141,1917.8687 900.8581,1918.1067 C903.4391,1915.6737 906.0171,1913.2367 908.4261,1910.9567 C911.8621,1911.9367 914.9051,1912.8037 919.3191,1914.0617 C921.2681,1910.9727 923.3741,1907.6327 925.4581,1904.3307 C929.8881,1907.2767 932.8091,1909.2177 936.0731,1911.3877 C937.6301,1908.9727 938.9671,1906.9007 939.8781,1905.4887 C952.2211,1905.7527 964.1291,1908.8997 972.4401,1897.2977 C973.2471,1896.1717 975.4191,1896.1017 976.8271,1895.3087 C979.3971,1893.8617 982.1471,1892.5537 984.3281,1890.6287 C989.6651,1885.9197 995.5021,1882.7277 1002.7261,1881.9047 C1006.2671,1881.5007 1009.6621,1879.9177 1013.1651,1879.0377 C1015.8951,1878.3517 1018.6731,1877.8207 1021.4581,1877.4057 C1029.0801,1876.2697 1036.8201,1875.7047 1044.3211,1874.0437 C1055.4741,1871.5737 1066.8971,1870.8357 1077.9911,1867.4007 C1082.7921,1865.9127 1088.8491,1864.0937 1094.2501,1865.0857 C1098.7101,1865.9047 1100.7441,1864.0997 1103.5731,1861.4447 C1106.2801,1858.9027 1110.9571,1855.2517 1113.2591,1856.1137 C1119.0281,1858.2747 1121.8041,1854.3967 1125.6741,1852.5247 C1134.0911,1861.4127 1136.2141,1845.9527 1143.2001,1849.2597 C1141.3161,1842.2447 1142.5021,1839.7987 1147.2581,1840.0797 C1147.9181,1841.8297 1148.6681,1843.8147 1149.9151,1847.1127 C1153.9131,1843.8747 1157.2081,1841.2047 1162.5181,1836.9057 C1159.1641,1847.1717 1164.4201,1849.5387 1170.3661,1851.3157 C1177.1001,1847.1457 1184.3021,1843.6517 1190.2731,1838.6797 C1195.0101,1834.7357 1199.5621,1835.0797 1203.9661,1837.0517 C1207.5751,1838.6667 1209.4391,1839.3457 1211.3991,1835.2447 C1213.2521,1831.3657 1216.1311,1828.5107 1222.1711,1830.6857 C1220.5211,1832.5647 1219.4531,1833.7797 1217.8061,1835.6557 C1228.1991,1836.1137 1235.4671,1829.5317 1243.9121,1826.6367 L1243.9121,1831.1147 C1246.2541,1828.5507 1247.7381,1826.9267 1249.2391,1825.2847 C1254.5861,1827.5457 1254.4551,1827.3007 1258.5801,1825.0927 C1263.5921,1822.4087 1268.5441,1818.4577 1274.7861,1822.1347 L1292.0971,1818.4307 C1295.2661,1817.5197 1298.3831,1816.1747 1301.6151,1815.7847 C1309.6231,1814.8177 1317.2901,1813.0177 1324.0821,1808.4757 C1329.1451,1805.0907 1334.4161,1809.8797 1339.4901,1807.9657 C1340.5091,1813.5587 1344.1671,1810.7727 1347.1911,1810.4987 C1364.9321,1808.8907 1382.6681,1807.6547 1400.2821,1811.8387 C1401.8081,1812.2017 1403.5711,1811.7507 1405.1941,1811.4927 C1428.2251,1807.8187 1451.2521,1804.1207 1474.2781,1800.4117 C1486.8801,1798.3817 1499.4771,1796.3197 1512.1281,1794.2637 C1512.8841,1795.9867 1513.5611,1797.5327 1514.7461,1800.2357 C1516.6921,1795.4857 1517.2921,1790.5297 1523.1551,1791.6277 C1523.4021,1791.6737 1523.9771,1790.7357 1524.1711,1790.1767 C1525.9451,1785.0767 1530.5391,1784.3247 1534.8781,1782.9757 C1549.7701,1778.3447 1564.6311,1773.6117 1579.4841,1768.8547 C1583.6011,1767.5367 1587.6221,1764.9037 1591.7331,1764.8057 C1598.9411,1764.6327 1603.5171,1761.1947 1607.1861,1755.6137 C1612.0221,1756.3327 1616.0631,1755.8727 1619.7971,1752.0577 C1622.9681,1748.8187 1627.1611,1746.2697 1631.3421,1744.4017 C1636.9661,1741.8887 1642.8941,1739.7107 1648.9151,1738.5397 C1653.9361,1737.5637 1659.4091,1738.9607 1664.4561,1738.0547 C1679.8161,1735.2987 1695.0431,1731.8717 1709.4231,1725.4957 C1713.9161,1723.5027 1718.7051,1722.0747 1722.9761,1719.7017 C1730.1141,1715.7377 1737.2531,1712.8137 1745.6121,1715.0687 C1747.1461,1715.4827 1749.9591,1715.9547 1750.2701,1715.3747 C1753.9531,1708.5117 1758.5851,1715.2477 1762.0031,1714.4487 C1764.6891,1711.4347 1766.5651,1707.5037 1769.5111,1706.3847 C1776.7711,1703.6267 1784.5591,1702.2857 1792.0481,1700.0797 C1793.7241,1699.5867 1794.8981,1697.5677 1796.5591,1696.8097 C1801.3521,1694.6207 1805.6461,1688.2977 1811.7431,1694.6307 C1812.1491,1695.0517 1813.5711,1695.0957 1814.0871,1694.7197 C1820.9241,1689.7457 1829.4181,1689.7547 1836.6981,1686.8997 C1839.0191,1688.8817 1841.1281,1690.6837 1843.2041,1692.4567 C1848.7861,1686.4917 1848.7861,1686.4917 1852.9931,1689.0697 C1855.3951,1686.9947 1857.8051,1684.9127 1860.2151,1682.8307 C1863.3091,1686.8007 1865.9331,1683.3167 1867.3881,1681.6117 C1874.2581,1673.5567 1883.4431,1670.4927 1893.2191,1668.1387 C1895.4071,1667.6127 1898.4651,1665.8117 1898.9471,1664.0147 C1900.3861,1658.6377 1902.4631,1656.2627 1908.0851,1659.0927 C1908.8641,1659.4847 1910.4041,1658.4417 1911.5621,1657.9907 C1919.4221,1654.9247 1927.3291,1651.9707 1935.1101,1648.7187 C1941.1591,1646.1907 1947.3761,1644.3297 1952.5391,1639.5357 C1956.2561,1636.0837 1961.6581,1633.3917 1966.6651,1632.5897 C1979.2461,1630.5767 1990.8311,1625.6757 2002.7761,1621.8277 C2014.1541,1618.1627 2024.8361,1613.2547 2033.7941,1604.8957 C2036.8171,1602.0757 2041.2021,1600.6717 2045.0451,1598.7857 C2047.6901,1597.4877 2050.6601,1596.7817 2053.1641,1595.2787 C2064.5491,1588.4457 2076.3991,1582.9437 2089.6721,1580.8457 C2092.2241,1580.4427 2094.7741,1579.2677 2097.0391,1577.9557 C2103.3261,1574.3167 2109.4811,1570.4467 2115.6521,1566.6097 C2121.7701,1562.8047 2128.0821,1559.3157 2134.2681,1555.6737 C2143.1751,1550.4297 2151.0351,1543.4157 2161.3271,1540.6297 C2162.5981,1540.2867 2164.1071,1539.9337 2164.9561,1539.0547 C2172.5871,1531.1497 2182.3141,1526.2027 2191.1611,1519.9997 C2195.0151,1517.2967 2198.2471,1514.5007 2203.3951,1514.4737 C2205.4861,1514.4617 2207.6821,1512.1337 2209.6261,1510.6017 C2216.2491,1505.3827 2222.7621,1500.0227 2229.3781,1494.7947 C2230.1081,1494.2187 2231.2251,1493.9157 2232.1801,1493.8717 C2242.9221,1493.3717 2250.4641,1486.5297 2258.0301,1480.2737 C2268.2251,1471.8407 2279.7231,1465.6637 2291.1201,1459.2187 C2296.8271,1455.9917 2302.4091,1452.5317 2307.9461,1449.0177 C2311.8711,1446.5277 2315.3761,1443.2567 2319.5101,1441.2377 C2329.1421,1436.5337 2339.0391,1432.3727 2348.8911,1427.9647 C2350.0301,1429.1927 2351.1971,1430.4527 2352.8781,1432.2657 C2355.9951,1424.1487 2360.0961,1418.2287 2368.3411,1415.9767 C2370.9141,1415.2747 2372.8951,1412.3507 2375.1061,1410.3977 C2376.5651,1409.1097 2377.8171,1406.7827 2379.3931,1406.5597 C2389.5451,1405.1247 2395.3591,1398.5477 2400.2351,1390.3907 C2401.5471,1388.1957 2403.7131,1386.3287 2405.8561,1384.8417 C2413.4561,1379.5737 2420.1631,1373.3857 2429.1211,1369.6027 C2439.2801,1365.3117 2448.0631,1357.7757 2457.4831,1351.7087 C2458.5791,1351.0027 2459.8791,1350.5117 2461.1541,1350.1997 C2478.2721,1346.0037 2493.5651,1337.8597 2508.2581,1328.4437 C2512.8601,1325.4947 2517.3641,1322.3847 2521.8211,1319.2187 C2527.4381,1315.2307 2533.0221,1311.1897 2538.5091,1307.0257 C2545.9071,1301.4127 2549.5321,1291.5317 2559.6491,1288.8727 C2565.7061,1287.2827 2571.5661,1284.9167 2577.4771,1282.7957 C2582.6081,1280.9537 2587.6861,1278.9637 2591.9231,1277.3667 C2591.9231,1268.6437 2592.1071,1261.5187 2591.8531,1254.4097 C2591.7021,1250.1717 2591.4691,1246.2057 2593.2841,1242.0507 C2595.4141,1237.1707 2593.9001,1234.0707 2588.7011,1232.4097 L2588.7011,1232.4097 Z" id="Fill-3" fill="#000000" mask="url(#mask-2)"></path>
            </g>
            <path d="M92.1597,844.854 L92.1597,844.854 L92.1597,844.854 L92.1597,844.854 C92.1927,844.703 92.2247,844.554 92.2577,844.403 C92.1457,844.47 92.0347,844.533 91.9247,844.588 L91.9247,844.841 C92.0037,844.845 92.0817,844.85 92.1597,844.854" id="Fill-6" fill="#000000"></path>
            <path d="M48.2158,990.7007 C48.2808,990.6267 48.3418,990.5487 48.4068,990.4727 C48.2648,990.4587 48.1228,990.4437 47.9808,990.4287 L48.2158,990.7007 Z" id="Fill-8" fill="#000000"></path>
            <g id="Group-12" transform="translate(0.000000, 970.350000)">
                <mask id="mask-4" fill="white">
                    <use xlink:href="#path-3"></use>
                </mask>
                <g id="Clip-11"></g>
                <path d="M12.2827,10.6486 C10.3577,8.6856 8.8387,7.1356 6.6847,4.9386 C10.4897,4.2196 13.0327,3.7406 17.6837,2.8626 C10.9637,1.8746 6.4397,1.2096 2.7607,0.6686 C2.0117,3.0666 1.1267,5.9016 -0.0003,9.5086 C2.8867,12.3866 7.0767,13.3246 12.2827,10.6486" id="Fill-10" fill="#000000" mask="url(#mask-4)"></path>
            </g>
            <path d="M14.7974,994.23 C10.2534,991.32 14.5644,988.425 13.8694,985.223 L3.9234,985.223 C5.1334,987.588 6.5014,989.258 6.8354,991.115 C7.6374,995.566 9.1494,999.258 13.8104,1000.829 C15.7024,998.785 17.3874,995.888 14.7974,994.23" id="Fill-13" fill="#000000"></path>
            <path d="M142.7803,1183.7085 C141.0803,1183.1025 140.4013,1179.6435 138.9633,1176.8795 C137.8523,1176.9955 135.7833,1177.2115 133.3043,1177.4715 C134.1903,1180.0545 134.8013,1181.8365 135.4053,1183.5975 C140.8753,1188.3915 146.2003,1187.4735 153.0433,1182.4815 C151.0523,1181.2095 149.6693,1180.3265 148.2983,1179.4465 C148.6553,1183.6875 145.2643,1184.5965 142.7803,1183.7085" id="Fill-15" fill="#000000"></path>
            <path d="M25.4087,981.3159 C25.3517,981.3449 25.2947,981.3759 25.2377,981.4049 C25.2217,981.4569 25.1957,981.5009 25.1817,981.5539 L25.4087,981.3159 Z" id="Fill-17" fill="#000000"></path>
            <path d="M25.2378,981.4048 C26.5798,976.9668 34.5688,978.0738 33.8428,971.0258 C25.6248,972.8688 21.0238,977.6358 17.9888,985.1628 C20.8988,983.6538 23.0778,982.5238 25.2378,981.4048" id="Fill-19" fill="#000000"></path>
            <path d="M31.3521,998.4009 C32.4961,998.8529 34.3991,999.7609 34.4831,999.6159 C36.8671,995.5049 41.1351,995.0529 45.0331,993.7139 C46.1851,993.3179 46.9321,991.7449 47.8321,990.6169 C45.1521,990.0229 42.3991,989.4129 38.0011,988.4379 C41.6831,996.5829 32.0101,992.8659 31.3521,998.4009" id="Fill-21" fill="#000000"></path>
            <path d="M48.2158,990.7017 C48.2158,990.7007 47.9808,990.4287 47.9808,990.4287 C47.9298,990.4877 47.8818,990.5547 47.8328,990.6167 C47.9598,990.6447 48.0888,990.6737 48.2158,990.7017" id="Fill-23" fill="#000000"></path>
            <path d="M13.6699,1000.982 L13.8149,1000.831 C13.8129,1000.831 13.8119,1000.83 13.8099,1000.829 C13.7429,1000.902 13.6749,1000.977 13.6079,1001.047 C13.7569,1001.009 13.9059,1000.971 14.0559,1000.933 C13.9789,1000.895 13.9019,1000.858 13.8249,1000.82 C13.8179,1000.827 13.7319,1000.917 13.6699,1000.982" id="Fill-25" fill="#000000"></path>
            <path d="M26.2007,1006.9234 C26.6777,1002.5874 26.9527,1000.0774 27.2277,997.5724 L14.0557,1000.9334 C17.7307,1002.7354 21.4177,1004.5584 26.2007,1006.9234" id="Fill-27" fill="#000000"></path>
            <path d="M302.4297,1446.522 C303.9387,1447.496 305.2317,1448.331 306.5257,1449.165 C306.8767,1448.404 307.2277,1447.643 307.5787,1446.881 C305.1357,1445.95 302.5247,1443.996 300.2957,1444.362 C297.8937,1444.756 295.7917,1447.252 293.6757,1448.975 C292.7047,1449.764 292.0047,1450.886 291.1847,1451.862 C296.7597,1453.779 298.3157,1447.086 302.4297,1446.522" id="Fill-29" fill="#000000"></path>
            <path d="M128.7744,1158.5972 C125.0354,1155.6402 121.8094,1153.0882 117.1194,1149.3792 C121.6084,1161.2752 121.6084,1161.2752 128.7744,1158.5972" id="Fill-31" fill="#000000"></path>
            <path d="M306.145,1476.1353 C300.357,1471.3393 300.357,1471.3393 290.873,1473.5763 C296.277,1474.4823 301.211,1475.3093 306.145,1476.1353" id="Fill-33" fill="#000000"></path>
            <path d="M34.061,987.9029 C29.047,986.3209 25.82,988.0449 23.069,991.8579 C24.581,993.9289 25.905,995.7439 27.23,997.5569 C27.229,997.5619 27.228,997.5679 27.228,997.5729 C27.232,997.5719 27.235,997.5709 27.239,997.5699 L27.23,997.5559 L27.23,997.5569 L27.23,997.5559 C25.588,991.8669 33.529,992.7359 34.061,987.9029" id="Fill-35" fill="#000000"></path>
            <path d="M47.7803,949.1509 C47.1463,949.5799 46.7493,950.3599 44.6593,952.9159 C50.1823,952.2239 53.6143,951.7949 58.7953,951.1459 C51.1733,947.3909 50.5473,947.2809 47.7803,949.1509" id="Fill-37" fill="#000000"></path>
            <path d="M12.9146,960.1402 C16.6406,962.3782 20.1426,961.3102 22.5826,956.4002 C18.9976,957.2292 15.9446,957.9362 12.5826,958.7142 C12.0346,956.6962 11.5876,955.0562 11.1416,953.4152 C10.6136,953.6482 10.0846,953.8812 9.5576,954.1142 C10.6406,956.1822 11.2056,959.1132 12.9146,960.1402" id="Fill-39" fill="#000000"></path>
            <path d="M413.7158,1658.3706 C413.7018,1659.0086 413.7908,1659.7046 413.9548,1660.4486 C414.1678,1660.4676 414.3868,1660.4746 414.6038,1660.4866 C414.4998,1660.4136 414.3968,1660.3396 414.2918,1660.2666 C414.1008,1659.6386 413.9098,1659.0096 413.7158,1658.3706" id="Fill-41" fill="#000000"></path>
            <path d="M44.5591,980.1197 C47.4741,979.4577 48.7291,977.2347 45.5071,974.6147 C41.7771,976.6447 38.1891,978.5987 34.6061,980.5487 C37.9481,980.5097 41.3741,980.8447 44.5591,980.1197" id="Fill-43" fill="#000000"></path>
            <path d="M311.334,1479.9175 C307.79,1481.2765 304.245,1482.6365 300.451,1484.0925 C304.042,1487.5125 305.988,1486.9545 311.334,1479.9175" id="Fill-45" fill="#000000"></path>
            <path d="M307.5137,1454.7583 C307.3477,1454.8263 307.1817,1454.8953 307.0167,1454.9623 C307.1517,1454.9623 307.2717,1454.9603 307.4097,1454.9603 C307.4547,1454.9083 307.5137,1454.7583 307.5137,1454.7583" id="Fill-47" fill="#000000"></path>
            <path d="M292.853,1460.77 C297.958,1458.677 302.497,1456.816 307.017,1454.962 C296.006,1454.979 293.773,1455.74 292.853,1460.77" id="Fill-49" fill="#000000"></path>
            <path d="M2523.6592,645.7285 L2523.6592,659.3715 C2524.3532,659.3265 2525.0472,659.2815 2525.7422,659.2375 C2525.4232,655.0645 2527.5572,650.7345 2523.6592,645.7285" id="Fill-51" fill="#000000"></path>
            <path d="M34.7764,918.6714 C27.0184,921.7164 27.2564,924.8874 31.5264,929.7554 C32.6374,925.9674 33.4784,923.0994 34.7764,918.6714" id="Fill-53" fill="#000000"></path>
            <path d="M555.3994,1904.439 C555.2464,1902.706 555.0924,1900.973 554.9394,1899.241 C552.4844,1900.671 549.9874,1902.101 545.9044,1904.439 L555.3994,1904.439 Z" id="Fill-55" fill="#000000"></path>
            <path d="M71.9985,894.8877 C77.6545,900.0617 79.1085,892.8237 83.5065,892.0667 C76.1195,886.6367 76.1195,886.6367 72.0775,892.6447 C69.0165,891.4307 65.9545,890.2177 61.1455,888.3107 C64.7215,893.2367 67.7485,895.1227 71.9985,894.8877" id="Fill-57" fill="#000000"></path>
            <path d="M259.4644,1366.9898 C258.5504,1366.7638 257.3684,1367.6238 256.3034,1368.0088 C257.0184,1369.2378 257.7324,1370.4678 258.8604,1372.4078 C260.2044,1371.0048 261.5834,1370.1988 261.6004,1369.3648 C261.6174,1368.5438 260.3734,1367.2148 259.4644,1366.9898" id="Fill-59" fill="#000000"></path>
            <path d="M124.0508,1104.648 C126.3918,1103.603 128.7328,1102.558 131.0748,1101.517 C128.8468,1100.95 126.6188,1100.378 124.3898,1099.807 C124.2768,1101.42 124.1638,1103.035 124.0508,1104.648" id="Fill-61" fill="#000000"></path>
            <path d="M29.9663,967.2783 C30.4963,967.7063 31.0263,968.1343 31.5553,968.5623 C32.8483,966.8793 34.1413,965.1963 35.4343,963.5133 C35.0233,963.2013 34.6123,962.8903 34.2023,962.5783 C32.7903,964.1443 31.3783,965.7113 29.9663,967.2783" id="Fill-63" fill="#000000"></path>
            <path d="M25.4409,981.2847 C25.4089,981.3157 25.1819,981.5547 25.1819,981.5547 C25.3429,981.5397 25.5049,981.5257 25.6679,981.5117 C25.5899,981.4327 25.5199,981.3647 25.4409,981.2847" id="Fill-65" fill="#000000"></path>
            <path d="M34.0918,980.6177 C34.1468,980.6787 34.2198,980.7597 34.2198,980.7597 L34.6068,980.5487 C34.4158,980.5507 34.2238,980.5497 34.0338,980.5547 C33.9808,980.6377 33.9338,980.7077 33.8818,980.7877 L34.2188,980.7587 C34.2188,980.7587 34.1468,980.6787 34.0918,980.6177" id="Fill-67" fill="#000000"></path>
            <path d="M33.8818,980.7876 C31.1438,981.0286 28.4048,981.2696 25.6678,981.5116 C29.8068,985.6916 30.7718,985.6046 33.8818,980.7876" id="Fill-69" fill="#000000"></path>
            <path d="M77.4658,880.5054 C77.3028,879.7674 77.1398,879.0284 76.9768,878.2894 C75.6538,878.4974 74.2958,878.5994 73.0458,879.0244 C72.8488,879.0904 73.1478,880.6154 73.2168,881.4654 C74.6328,881.1464 76.0488,880.8254 77.4658,880.5054" id="Fill-71" fill="#000000"></path>
            <path d="M87.292,844.5889 C87.169,845.0849 87.046,845.5809 86.923,846.0769 C88.591,846.8959 90.258,847.7149 91.925,848.5349 C91.925,847.3039 91.925,846.0719 91.925,844.8409 C90.381,844.7569 88.836,844.6729 87.292,844.5889" id="Fill-73" fill="#000000"></path>
            <path d="M2481.9185,590.8316 L2478.7605,586.7696 C2478.2895,587.0936 2477.8185,587.4176 2477.3485,587.7416 C2478.5245,589.0776 2479.7005,590.4136 2480.8765,591.7486 C2481.2245,591.4436 2481.5715,591.1376 2481.9185,590.8316" id="Fill-75" fill="#000000"></path>
            <path d="M532.021,1884.9517 C532.979,1886.6857 533.938,1888.4197 534.896,1890.1527 C535.487,1889.8407 536.078,1889.5287 536.668,1889.2167 L533.956,1883.9337 C533.311,1884.2727 532.666,1884.6127 532.021,1884.9517" id="Fill-77" fill="#000000"></path>
            <path d="M148.52,1215.4741 C149.921,1215.8181 151.322,1216.1611 152.722,1216.5041 C152.896,1215.8701 153.07,1215.2371 153.244,1214.6021 C151.871,1214.1271 150.498,1213.6531 149.124,1213.1781 C148.923,1213.9441 148.722,1214.7091 148.52,1215.4741" id="Fill-79" fill="#000000"></path>
            <path d="M2153.7031,352.4224 C2157.6541,352.6514 2159.6211,352.7654 2162.5091,352.9334 C2159.9381,348.3624 2157.8601,349.7544 2153.7031,352.4224" id="Fill-81" fill="#000000"></path>
            <path d="M137.0322,1190.4527 C136.4632,1188.1537 135.9472,1186.0707 135.4342,1184.0027 C134.8362,1186.3057 131.6152,1189.0847 137.0322,1190.4527" id="Fill-83" fill="#000000"></path>
            <path d="M135.4341,1184.0025 C135.4531,1183.9325 135.4761,1183.8595 135.4901,1183.7905 C135.4821,1183.7815 135.4691,1183.7615 135.4541,1183.7385 C135.4371,1183.6915 135.4211,1183.6445 135.4051,1183.5975 C135.3751,1183.5705 135.3451,1183.5495 135.3151,1183.5235 C135.3551,1183.6835 135.3941,1183.8435 135.4341,1184.0025" id="Fill-85" fill="#000000"></path>
            <path d="M120.4922,1146.6304 C119.8312,1146.1924 119.0742,1145.3094 118.5332,1145.4254 C117.8402,1145.5754 117.3212,1146.5304 116.7272,1147.1384 C117.3082,1147.6334 117.8902,1148.1284 118.7022,1148.8204 C119.4452,1147.9114 119.9692,1147.2714 120.4922,1146.6304" id="Fill-87" fill="#000000"></path>
        </g>
    </g>
</svg>