<?xml version="1.0" encoding="UTF-8"?>
<svg width="2122px" height="1903px" viewBox="0 0 2122 1903" version="1.1" xmlns="http://www.w3.org/2000/svg" xmlns:xlink="http://www.w3.org/1999/xlink">
    <!-- Generator: Sketch 61.2 (89653) - https://sketch.com -->
    <title>Artboard 4</title>
    <desc>Created with Sketch.</desc>
    <g id="Page-1" stroke="none" stroke-width="1" fill="none" fill-rule="evenodd">
        <g id="Artboard-4" fill="#000000" fill-rule="nonzero">
            <path d="M540.14,412.74 C542.75,412.04 544.67,410.16 548.14,412.43 C559.66,420 571.62,426.92 583.58,433.79 C585.68,435 588.63,434.79 591.18,435.15 C598.04,436.15 605.1,434.87 611.83,438.24 C616.72,440.69 620.17,443.43 620.91,449.03 C621.06,450.15 621.91,451.18 623.6,454.47 L625.34,444.33 C625.92,444.19 626.65,443.75 627.09,443.95 C631.35,445.87 634.71,450.18 640.24,448.76 C640.69,448.64 641.6,449.24 641.9,449.76 C648.16,460.17 660.99,461.76 669.03,470.21 C676.41,478 687.62,477.74 698.94,479.05 C696.63,473.31 694.57,468.72 700.02,463.86 C702.46,461.68 701.55,455.73 702.12,451.49 C702.65,447.56 702.72,443.49 703.76,439.73 C704.76,436.16 704.12,433.49 702.19,430.42 C699.529677,426.241482 697.33334,421.785098 695.64,417.13 C692.16,407.25 695.21,398.36 700.49,389.81 C703.314386,384.948194 705.88126,379.941287 708.18,374.81 C708.72,373.7 709.18,371.9 708.68,371.07 C706.19,367.07 709.36,365.39 711.21,362.74 C713.55,359.37 716.47,356.1 715.21,351.01 C714.67,348.87 716.8,346.13 717.4,343.59 C718.22,340.2 718.4,336.59 719.4,333.32 C722.07,324.89 727.6,317.32 727.31,307.99 C731.82,304.4 736.14,300.56 740.86,297.27 C751.78,289.68 759.27,279.86 761.33,266.55 C761.84,263.27 763.42,261.83 766.22,261.29 C788.1,257.07 801.43,243.47 808.8,223.03 C809.63,220.73 812.1,219.03 813.67,216.96 C814.85433,215.450519 815.860956,213.809718 816.67,212.07 C817.75,209.56 814.16,204.66 820.47,204.88 C820.85,201.35 822.62,198.98 825.75,197.09 C829.91,194.58 830.62,189.36 828.16,186.63 C824.77,182.85 827.81,178.63 828.51,178.2 C834.76,173.91 834.28,166 838.59,160.85 C841.44,157.44 840.66,150.42 847.98,151.5 C850.79,142.56 860.36,138.5 863.98,131.18 C867.98,123.18 873.15,115.97 877.11,108.06 C879.86,102.57 881.27,96.45 883.64,90.73 C886.58,83.61 891.09,77.16 896.09,73.35 C905.35,66.29 910.78,55.67 921.27,49.75 C920.15,46.75 919.18,44.17 917.97,40.98 C919.67,40.46 921.45,39.25 922.55,39.69 C930.35,42.86 936.07,42.05 939.13,33.04 C939.68,31.42 942.82,30.48 944.93,29.62 C950.93,27.18 956.17,24.07 958.19,17.22 C958.71,15.48 960.54,14.14 962.53,11.65 L979.76,22 L983.32,19.63 C990.62,30.1 1013.82,31.14 1027.82,19.49 C1028.49,21.32 1029.09,23.01 1029.42,23.91 C1036.84,23.73 1043.86,23.55 1050.89,23.39 C1051.5,23.39 1052.47,23.83 1052.67,23.59 C1059.78,14.59 1066.32,23.39 1072.78,24.68 C1077.78,25.68 1081.96,27.29 1086.67,23.83 C1088.11,22.76 1091,23.66 1093.23,23.66 C1092.23,24.95 1091.36,26.12 1090.13,27.74 C1097.69,27.87 1097.69,27.87 1102.76,22.87 L1109.57,30.13 C1118.9,26.71 1120.16,26.66 1127.03,29.26 C1135.84,32.6 1135.93,32.57 1139.89,25.31 L1143.09,27.31 C1143.74,26.9 1144.46,26.69 1144.74,26.23 C1148.96,19.35 1154.62,15.44 1163.1,14.96 C1168.63,14.64 1174.04,12.39 1179.64,10.96 C1182.64,17.6 1182.98,17.7 1188.86,13.72 C1195.04,15.5 1200.86,18.64 1206.59,18.39 C1211.91,18.16 1219.5,20.48 1223.34,12.47 C1223.49,15.01 1223.65,17.54 1223.84,20.74 C1225.07,19.89 1226.42,19.31 1226.36,18.95 C1225.42,12.95 1230.43,8.82 1233.59,7.17 C1238.05,4.84 1244.96,3.96 1248.98,11.37 L1256.23,0.83 C1262.43,5.73 1268.51,10.29 1275.63,2.04 C1277.34,7.94 1273.63,9.24 1270.63,11.09 C1267.63,12.94 1264.94,14.85 1260.71,17.66 L1270.94,19.29 L1278.75,10.75 L1285.57,20.2 C1290.44,18.4 1284.95,9.65 1292.66,9.06 C1294.21,17.34 1302.85,11.06 1305.8,16.39 L1316,6 C1316.82,10.75 1317.28,13.46 1317.78,16.39 C1324.63,18.72 1324.25,13.63 1324.49,7.59 C1326.64,10.53 1327.78,12.1 1329.37,14.26 L1339.68,4.83 C1342.5,10.55 1348.61,12.83 1350.92,19 C1352.19,22.42 1353.8,27.18 1359.42,27 C1360.24,27 1361.42,28.66 1361.92,29.79 C1364.31,35.35 1369.05,37.33 1373.47,37.92 C1376.47,43.51 1378.39,48.92 1381.9,52.85 C1384.74,56.03 1389.36,57.93 1393.53,59.51 C1397.7,61.09 1402.43,60.74 1404.18,66.34 C1404.39,67.01 1409.4,66.19 1412.78,66.03 L1415.46,73.81 C1420.78,72.29 1424.46,72.95 1428.82,77.81 C1435.3,84.99 1441.59,93.09 1451.4,96.57 C1452.31867,96.897573 1453.15964,97.4116827 1453.87,98.08 C1455.87,99.97 1457.5,103.02 1459.81,103.65 C1462.3,104.32 1465.4,102.76 1468.24,102.17 C1470.67,109.11 1476.99,107.54 1482.24,108.78 C1487.32,109.97 1492.12,112.35 1498.34,114.7 C1499.15,116.15 1500.62,119.08 1502.34,121.85 C1507.02,129.42 1511.94,136.06 1522.2,137.27 C1527.3,137.87 1531.97,142.1 1537.12,144.84 C1538.64,140.55 1541.12,137.2 1545.17,139.11 C1547.91,140.4 1549.55,144.03 1552.02,147.02 L1547.51,150.24 C1554.51,154.87 1558.17,161.62 1559.17,171.6 L1579.32,183.26 C1581.08,186.1 1583.59,189.99 1585.95,193.97 C1590.95,202.47 1597.84,209.97 1598.95,220.62 C1599.38,224.62 1603.05,228.32 1605.2,232.18 C1607.65,236.58 1610.05,241.01 1612.91,246.23 C1616.63,246.86 1616.63,246.86 1630.91,237.7 C1630.5,242.52 1629.45,247.53 1629.85,252.41 C1630.22,256.89 1632.43,260.55 1636.62,263.68 C1641.19,267.1 1644.32,272.51 1647.84,277.23 C1654.15,285.7 1660.28,294.3 1666.49,302.84 C1667.26,303.91 1668.19,306.02 1668.76,305.93 C1675.65,304.76 1677.34,309.22 1679.61,314.38 C1681.81,319.38 1685.48,323.78 1688.91,328.13 C1691.08792,330.870522 1693.663,333.270336 1696.55,335.25 C1700.66,338.08 1705.17,340.36 1710.67,343.54 C1710.55,345.64 1710.35,349.21 1710.1,353.54 C1712.96,354.21 1715.51,356.33 1717.84,360.54 C1720.52,365.36 1726.21,368.74 1731.08,372.03 C1735.08,374.73 1739,376.95 1737.36,383.14 L1747.06,381.44 C1747.16,386.44 1751.06,384.44 1754.3,385.1 C1752.6,389.17 1747.7,393.97 1755.91,396.1 C1754.51,399.63 1753.43,402.38 1752.1,405.74 C1761.34,408.63 1761.03,419.35 1767.75,424.63 C1769.08333,420.93 1770.37333,417.263333 1771.62,413.63 L1774.11,413.49 L1785.72,437.38 L1793.93,435.46 C1792.45,438.46 1792.03,441.05 1790.54,442.08 C1785.4,445.67 1788.67,447.66 1791.35,451.43 L1796.24,441.55 L1814.81,466.78 C1810.03,476.54 1820.81,483.38 1822.48,493.85 L1830.7,487.95 C1839.79,493.67 1836.62,505.8 1844.7,512.88 L1851.57,508.62 C1850.85,512.62 1850.19,516.26 1849.51,520.04 C1852.2,523.68 1854.51,527.78 1860.25,527.37 C1861.25,527.31 1863.5,530.14 1863.25,530.67 C1860.56,536.07 1865.83,535.99 1868,538.01 C1871.61,541.38 1874.82,545.34 1878.88,548.01 C1884.41037,551.478799 1890.19714,554.520947 1896.19,557.11 C1899.75,558.75 1908.29,566.31 1910.19,570.04 C1913.68,576.72 1917.39,583.28 1921.26,590.36 L1930.16,585.16 C1930.42,589.16 1930.63,592.53 1930.94,597.48 L1943.64,586.63 C1941.14,601.34 1946.15,611.63 1954.17,619.47 C1956.43,619.28 1958.44,618.47 1959.25,619.14 C1966.15,624.79 1974.02,629.58 1974.96,640.08 C1975.22,642.94 1978.29,647.34 1980.76,647.87 C1986.76,649.19 1990,652.29 1991.68,657.87 C1991.95,658.76 1992.82,659.47 1993.63,660.55 L2003.37,659.78 C1999.96,663.86 1997.68,666.58 1995.55,669.14 C1998.08,673.14 2005.27,670.26 2004.73,676.38 L2015.88,673.22 C2016.49,675.86 2017.02,678.22 2017.65,680.91 L2026.42,672.91 L2027.79,673.85 C2027.35,675.56 2026.79,677.25 2026.5,678.99 C2025.7,683.89 2024.66,688.57 2028.92,692.99 C2030.85,694.99 2030.86,698.86 2031.66,701.61 C2037.76,703.28 2036.37,697.73 2038.6,695.49 C2039.96,699.79 2041.3,704.01 2043.21,709.98 C2044,706.31 2044.38,704.57 2045.02,701.62 C2050.14,707.73 2049.88,716.37 2058.02,719.83 L2064.23,711.68 C2064.8,712.68 2065.49,713.33 2065.35,713.68 C2064.35,715.92 2063.21,718.09 2062.11,720.28 L2074.4,725.65 L2077.1,732.65 L2092.9,725.94 C2095.46,728.6 2097.57,730.57 2099.4,732.78 C2100.26245,733.920919 2100.86023,735.239447 2101.15,736.64 C2101.64,738.7 2101.82,740.85 2102.25,743.82 L2108.64,740.32 L2102.9,753.71 L2110.75,758.5 C2110.4,765.82 2110.12,771.56 2109.86,777.29 C2109.9161,779.236553 2109.8359,781.184645 2109.62,783.12 C2107.91,792.19 2105.77,801.18 2104.43,810.29 C2104.06,812.8 2105.94,815.63 2106.96,818.87 C2100.25,826.2 2103.31,834.11 2107.83,842.29 C2095.5,848.52 2102.24,859.86 2099.96,868.67 C2101.88,870.21 2103.38,871.4 2104.85,872.67 C2105.05908,872.928466 2105.21844,873.223449 2105.32,873.54 C2102.6,879.03 2099.15,883.79 2100.65,891.07 C2101.65,896.02 2099.59,902.38 2097.06,907.14 C2090.78,918.91 2091.79,931.35 2092.75,943.63 C2093.71,955.91 2091.57,966.46 2085.37,974.4 C2084.8,982.92 2084.19,989.68 2083.93,996.4 C2083.73,1001.85 2083.46,1007.4 2084.16,1012.74 C2084.5,1015.31 2087.03,1017.59 2088.77,1020.32 L2082.91,1021.66 C2080.91,1038.97 2078.79,1055.94 2077.28,1072.96 C2076.68207,1078.91338 2077.07403,1084.92468 2078.44,1090.75 C2081.65,1103.44 2079.74,1115.97 2078.05,1128.4 C2076.95,1136.52 2078.5,1144.21 2078.88,1152.1 C2079.06,1155.96 2079.03,1159.84 2078.88,1163.7 C2078.67,1168.82 2074.76,1173.7 2077.88,1179.11 C2078.35,1179.92 2077.74,1181.9 2076.98,1182.77 C2073.19,1187.11 2075.1,1190.49 2078.61,1193.69 C2074.12,1195.59 2071.15,1197.17 2074.67,1203.14 C2076.55,1206.33 2075.01,1211.54 2075.01,1216.58 L2082.66,1216.09 C2078.36,1219.01 2077.52,1221.68 2078.88,1227.09 C2080,1231.47 2077.64,1237.16 2075.62,1241.75 C2074.22,1244.92 2072.62,1247.4 2074.41,1250.85 C2078.35,1258.38 2076.09,1266.04 2073.16,1272.85 C2071.72603,1276.46246 2070.83307,1280.26679 2070.51,1284.14 C2070.07041,1288.09467 2069.28405,1292.00304 2068.16,1295.82 C2064.16,1308.63 2060.52,1321.46 2054.97,1333.88 C2050.45,1343.99 2047.5,1354.88 2041.72,1364.52 C2040.69701,1366.23107 2040.15462,1368.18645 2040.15,1370.18 C2040.57,1386.6 2031.88,1400.5 2027.52,1415.57 C2025.44,1422.73 2020.52,1429.03 2017.71,1436.04 C2016.19,1439.8 2016.45,1444.25 2015.66,1448.35 C2014.98,1451.91 2014.5,1455.67 2012.95,1458.87 C2010,1464.95 2006.47,1470.76 2002.95,1476.55 C1999.43,1482.34 1995.55,1487.96 1991.95,1493.71 C1984.43,1505.59 1977.36,1517.79 1969.33,1529.32 C1965.11,1535.38 1964.17,1541.56 1963.43,1548.59 C1962.52,1557.33 1959.53,1565.85 1957.28,1575.15 C1948.98,1577.32 1944.03,1584.15 1939.11,1591.37 C1931.93312,1601.68971 1927.41917,1613.62385 1925.97,1626.11 C1925.89,1626.77 1925.97,1627.64 1925.62,1628.11 C1917.32,1637.11 1919.49,1650.2 1913.41,1660.21 C1911.71,1663.01 1912.41,1667.21 1911.99,1670.83 C1911.32,1677.06 1910.51,1682.58 1904.64,1687.2 C1901.12,1689.97 1899.84,1696.43 1898.95,1701.48 C1897.9,1707.48 1896.86,1712.96 1892.95,1717.98 C1890.95,1720.59 1890.59,1724.56 1889.71,1727.98 C1887.39,1736.98 1884.43,1745.54 1878.56,1753.13 C1870.56,1763.48 1861.68,1773.45 1858.75,1786.85 C1858.44188,1788.15005 1857.90703,1789.38561 1857.17,1790.5 C1853.06,1796.91 1849.31,1803.62 1844.59,1809.56 C1839.87,1815.5 1837.51,1822.34 1832.4,1827.93 C1824.4,1836.7 1816.53,1844.28 1805.81,1849.14 C1801.93,1850.9 1796.94,1850.39 1793.32,1852.44 C1789.41,1854.64 1786.65,1858.77 1783.15,1861.79 C1777.15,1866.94 1768.32,1867.94 1763.77,1875.18 C1755.9,1874.94 1749.77,1883.02 1740.42,1878.46 C1733.76,1875.21 1725.81,1878.11 1719.7,1882.92 C1715.7,1886.08 1711.85,1885.92 1706.96,1885.33 C1695.13849,1883.94823 1683.25147,1883.20049 1671.35,1883.09 C1668.64,1883.04 1665.95,1886.09 1663.11,1887.42 C1655.87,1890.86 1648.73,1894.61 1640.11,1892.48 C1638.8,1892.15 1636.63,1894 1635.3,1895.3 C1633.72,1896.83 1632.63,1898.86 1630.13,1902.3 C1629.91,1898.37 1629.81,1896.48 1629.64,1893.48 L1622.45,1897.61 C1617.03,1900.72 1611.84,1901.55 1605.56,1898.91 C1599.71,1896.45 1593.1,1893.42 1586.72,1898.78 C1586.07,1899.32 1584.04,1898.31 1582.72,1897.9 C1582.12,1897.72 1581.28,1896.81 1581.13,1896.9 C1573.96,1902.97 1567.62,1896.97 1560.94,1895.66 C1559.34824,1895.48472 1557.73887,1895.55895 1556.17,1895.88 C1551.62,1896.47 1546.98,1896.75 1542.57,1897.88 C1532.72,1900.39 1523.88,1895.97 1514.57,1894.44 C1510.07,1893.69 1505.39,1893.37 1501.12,1891.89 C1494.99,1889.77 1489.33,1886.25 1483.17,1884.27 C1475.17,1881.7 1466.82,1880.44 1458.84,1877.92 C1448.67,1874.7 1438.74,1870.75 1428.68,1867.19 C1426.29,1866.34 1423.25,1864.53 1421.45,1865.32 C1414.85,1868.21 1409.31,1866.12 1403.45,1862.32 L1403.45,1871.32 L1392.84,1867.89 C1392.59,1864.46 1392.32,1860.66 1392.05,1856.89 L1390.35,1856.6 L1388.63,1862.7 C1383.22,1861.36 1377.63,1860.36 1372.35,1858.55 C1367.35,1856.84 1362.79,1855.55 1359.09,1860.09 C1354.46,1857.24 1350.2,1854.97 1346.35,1852.15 C1342.66,1849.46 1338.87,1848.7 1334.35,1848.55 C1330.21,1848.41 1325.55,1849.31 1322.21,1843.92 C1320.48,1841.12 1314.54,1840.51 1310.34,1839.73 C1303.78,1838.51 1297.86,1836.62 1292.72,1831.93 C1286.93,1826.65 1281.79,1826.76 1276.15,1830.47 C1271.91,1827.89 1268.09,1825.47 1264.23,1823.22 C1261.44,1821.55 1258.58,1819.99 1255.79,1818.31 C1254.95,1817.81 1253.86,1816.4 1253.54,1816.58 C1247.19,1820.17 1241.34,1814.35 1235.02,1815.77 C1230.41,1816.77 1226.49,1817.19 1224.48,1818.77 C1214.48,1812.46 1209.33,1800.99 1199.59,1793.17 C1195.99,1796.62 1192.59,1797.33 1188.68,1792.38 C1185.96,1788.89 1181.68,1786.57 1177.9,1783.99 C1176.55905,1783.07017 1174.93971,1782.64589 1173.32,1782.79 C1167.76468,1783.58505 1162.27857,1784.8053 1156.91,1786.44 C1154.35,1787.3 1152.42,1790.04 1149.82,1792.26 C1148.92,1791.81 1147.2,1790.26 1146.38,1790.65 C1141.89,1792.75 1137.84,1794.26 1134.18,1789.16 C1133.86,1788.71 1130.89,1789.39 1129.94,1790.34 C1128.39,1791.89 1127.5,1794.09 1125.68,1797.08 C1124.43,1792.71 1123.5,1789.48 1122.18,1784.86 C1113.57,1798.07 1103.56,1793.26 1093.61,1788.96 C1092.72,1788.58 1091.82,1788.23 1090.93,1787.87 L1081.71,1783.77 C1083.07,1791.17 1079.88,1795.23 1073.1,1797.11 C1065.77,1799.11 1065.84,1799.41 1060,1794.26 C1052.43,1798.26 1042,1797.26 1037.9,1808.49 C1032.84,1802.89 1029.68,1805.56 1026.54,1809.14 C1017.26,1819.72 1017.23,1819.7 1003.69,1821.3 L997.77,1810.03 C992.94,1818.44 985.51,1819.86 977.58,1820.29 C976.267522,1820.38418 975.024563,1820.91587 974.05,1821.8 C970.18,1825.64 967.57,1822.8 964.71,1819.91 C956.58,1824.42 948.53,1828.91 938.56,1825.18 C936.21,1824.29 932.86,1826.05 928.85,1826.8 C928.63,1822.28 928.43,1818.23 928.22,1813.87 C937.22,1815.98 937.22,1815.87 938.22,1805.94 C932.53,1801.94 929.08,1810.3 923.03,1808.69 C923.33,1806.33 923.59,1804.19 924.03,1800.54 C916.72,1807.95 915.51,1816.8 911.42,1824.9 L902.5,1821.08 L895.72,1826.58 C890.17,1820.8 883.3,1822.31 877,1823.68 C868.85,1825.45 868.94,1826.11 859.07,1824.08 C850.53,1822.32 842.07,1820.23 832.82,1818.08 L828.13,1823.08 L820.4,1817.89 L811.32,1822.97 C810.95,1819.69 810.68,1817.26 810.42,1814.89 L805.42,1813.44 C804.720029,1819.86748 801.650369,1825.80359 796.81,1830.09 C795.15,1820.03 794.21,1818.66 787.49,1816.79 C787.18,1819.99 786.88,1823.06 786.55,1826.52 L780.98,1823.6 L776.43,1829.6 C767.15,1828.6 772.14,1821.9 771.6,1817.32 C764.66,1822.32 764.66,1822.32 758.6,1821.63 C760.04,1823.99 761.14,1825.79 762.25,1827.63 L761.11,1829.02 C757.29,1827.07 753.58,1824.89 749.64,1823.25 C745.99,1821.74 742.1,1820.82 737.44,1819.37 C736.62,1821.61 735.69,1824.19 734.37,1827.84 C733.51,1825.78 732.37,1824.38 732.58,1823.29 C734.41,1814.96 736.99,1806.81 733.24,1798.18 C732.69,1796.9 735.14,1793.42 737.01,1792.18 C740.31,1790 743.11,1788.44 741.33,1783.62 C740.86,1782.33 742.9,1780.23 743.48,1778.4 C744.14,1776.4 744.48,1774.18 745.03,1771.6 L734.55,1778.43 L734.76,1778.6 C735.08,1776.12 735.41,1773.6 735.82,1770.5 L720.55,1770.5 C720.55,1775.94 722.55,1782.83 720.11,1785.28 C715.65,1789.75 719.32,1795.58 714.91,1799.05 L730.28,1810.22 C730.41,1821.35 730.04,1821.76 719.36,1821.84 C719.96,1819.22 720.56,1816.57 721.14,1814 C716.89,1810.71 708.03,1816.87 710.48,1803.48 L707.92,1806.48 L697.85,1821.04 L696.91,1820.7 C698.04,1816.17 700.24,1811.57 699.99,1807.12 C699.75,1802.91 696.93,1798.84 694.99,1794.12 L689.44,1798.76 C689.13,1797.99 688.67,1796.76 687.77,1794.52 L683.06,1801.62 L671.15,1794.35 L653.78,1803.7 C652.49,1799.7 651.54,1796.78 649.96,1791.88 C647.96,1798.25 646.55,1802.65 644.96,1807.53 C640.31,1804.53 642.96,1799.95 642.28,1796.06 L632.71,1798.79 C632.17,1802.55 640.64,1805.44 634.45,1809.79 L624.62,1806.54 C623.85,1801.66 623.85,1801.66 617.84,1802.54 C619.7,1804.91 620.4,1809.05 624.89,1806.24 C624.15,1809.41 623.41,1812.59 622.55,1816.33 L611,1802.4 C611.42,1801.04 612.17,1798.66 612.83,1796.55 C612.24,1795.92 612.05,1795.55 611.83,1795.55 C611.49351,1795.54046 611.171814,1795.68837 610.96,1795.95 C607.2,1803.72 600.28,1807.95 592.7,1811.95 C590.7,1807.74 588.6,1803.26 586.49,1798.78 C588.08,1796.56 590.08,1794.41 587.91,1791.22 C583.45,1796.59 583.45,1796.59 584.54,1800.47 C581.28,1805.17 575.46,1808.34 575.86,1816.05 L561.32,1803.52 C566.8,1796.68 572.68,1804.33 578.05,1802.31 C577.22,1794.05 575.2,1792.97 566.05,1797.23 C565.52,1795.79 565.05,1794.4 564.51,1793.02 C564.13,1792.02 563.76,1790.96 563.16,1789.29 L548.59,1812.37 L547.14,1810.42 L533.75,1814 C534.06,1812.73 534.41,1811.31 534.81,1809.66 C532.09,1808.96 529.39,1807.77 526.66,1807.66 C524.66,1807.66 521.66,1810.27 520.72,1809.57 C516.15,1806.06 515.67,1813.12 511.16,1811.99 C512.48,1808.61 513.76,1805.35 515.92,1799.8 C509.17,1805.22 505.48,1802.85 503.08,1798.27 C499.6,1802.11 495.21,1805.08 493.61,1809.14 C491.09,1815.53 485.8,1815.58 480.13,1817.56 C479.85,1815.27 479.59,1813.27 479.27,1810.65 L473.71,1809.99 C473.53,1807.08 473.34,1804.12 473.13,1800.92 C465.91,1801.8 466.71,1806.28 467.6,1810.44 L458.53,1815.34 L451.92,1807.05 C445.61,1816.56 435.57,1817.63 426.48,1820.78 C424.61,1818.25 422.61,1815.53 420.18,1812.22 C424.31,1809.69 428.54,1806.39 424.06,1800.01 C417.91,1800.14 418.45,1806.84 414.8,1808.2 C408.6,1809.2 402.34,1809.98 396.23,1811.39 C389.92,1812.84 384.56,1813.23 378.76,1808.64 C373.17,1804.22 366.15,1801.52 359.56,1798.49 C357.16,1797.38 354.19,1797.49 350.95,1797.01 L350.95,1791.76 L341.23,1796.37 C339.53,1789.02 333.44,1789.85 327.95,1788.03 C326.64,1790.73 325.43,1793.24 324.21,1795.79 L319.6,1794 C319.97,1792.33 320.34,1790.62 320.87,1788.22 C310.2,1788.94 306.33,1781.82 303.28,1773.32 C302.19,1770.32 299.72,1767.72 297.71,1765.07 C292.71,1758.48 287.76,1751.86 282.54,1745.45 C278.73,1740.75 275.44,1736.08 278.01,1729.58 C269.96,1727.06 264.71,1721.12 259.15,1715.66 C255.37,1711.95 251.96,1707.86 248.15,1704.22 C243.32,1699.64 242.86,1697.22 245.75,1692.58 C239.37,1686.74 233.17,1681.06 225.86,1674.34 L234.31,1672.06 C234.43,1670 234.56,1667.76 234.77,1664.33 L229.09,1669.69 L227.78,1669.14 C228.27,1667.34 228.78,1665.53 229.07,1664.35 C227.71,1662.62 225.34,1660.73 225.67,1659.85 C227.16,1655.85 225.53,1653.56 222.44,1651.61 L222.68,1651.91 L222.68,1647.34 L215.74,1650.14 L205,1644.4 L205,1623 L194.34,1613.34 C188.76,1616.69 187.34,1608.67 183.34,1606.23 C179.34,1603.79 177.4,1597.72 173.42,1594.79 C167.82,1590.66 169.42,1584.79 167.9,1579.68 C159.63,1577.87 159.56,1577.87 159.44,1570.57 C159.35,1565.57 159.55,1560.69 154.65,1557.19 C153.37,1556.29 153.53,1553.36 154.52,1550.57 L160.25,1556.57 C160.53,1555.75 161.02,1555.08 160.89,1554.57 C159.63,1549.99 160.16,1544.34 153.89,1542.57 L150.77,1544.95 C148.36,1541.89 145.57,1539.23 143.86,1535.95 C140.38,1529.4 135.31,1523.25 137.15,1514.95 C137.72,1512.39 137.88,1509.74 138.25,1507.17 C139.87,1508.46 141.47,1509.71 145.03,1512.51 C144.6,1507.02 144.35,1503.87 144.11,1500.72 L142.42,1500.4 L138.42,1507.4 L131.22,1508.34 L124.93,1497.65 L130.22,1490.23 L121.87,1491.58 C125.51,1486.44 119.82,1480.5 125.97,1475.67 C115.62,1475.67 119.87,1466.11 114.11,1463.46 L115.67,1462.01 L120.24,1463.16 C120.24,1462.16 120.41,1460.59 120.24,1460.54 C114.3,1459.16 114.24,1454.1 113.03,1449.6 C111.4,1443.6 109.39,1437.72 107.47,1431.8 C107.17,1430.87 106.04,1430.02 106.11,1429.19 C106.6,1422.65 103.39,1417.68 99,1412.93 L107.77,1402.72 C107.390979,1402.19883 106.9398,1401.73418 106.43,1401.34 C104.05,1400.05 100.17,1399.34 99.51,1397.5 C97.87,1392.87 103.57,1394.68 105,1392.72 C107.21,1389.72 109.8,1386.23 110.18,1382.72 C110.65,1378.33 109.04,1373.72 107.98,1367.02 C105.98,1375.4 107.83,1382.51 102.98,1388.02 C100.52,1384.13 98.67,1380.29 95.98,1377.19 C93.1,1373.87 91.09,1370.76 91.68,1366.08 C91.93,1364.08 91.14,1360.47 89.9,1359.99 C84.29,1357.83 85.69,1353.2 85.06,1349.14 C83.67,1340.14 83.64,1331.44 88.14,1323.06 C89.22,1321.06 88.57,1318.12 87.21,1314.96 L83.01,1319.87 C81.91,1318.25 81.18,1316.44 79.86,1315.35 C73.86,1310.45 73.31,1308.78 77.14,1303.07 C79.04,1300.23 80.85,1297.97 76.08,1296.38 C75.422621,1296.05666 74.8582681,1295.57145 74.44,1294.97 C77.23,1290.97 72.38,1287.86 72.78,1285.18 C74.15,1276.02 68.15,1269.32 66.37,1261.33 C66.01,1259.71 66.23,1257.56 65.26,1256.54 C61.26,1252.42 61.96,1248.84 64.84,1244.31 C66.17,1242.22 66.44,1237.96 65.17,1235.97 C59.74,1227.41 61.35,1218.85 64.17,1209.78 L58.92,1210.62 C58.72,1204.18 54.16,1198.14 58.51,1190.8 L54.77,1191.43 C53.37,1187.98 50.15,1183.97 51.07,1181.49 C52.77,1176.89 50.07,1175.39 48.31,1172.49 C46.93,1170.15 47.09,1166.74 47.03,1163.79 C46.88,1156.29 44.59,1149.7 40.82,1143.14 C35.75,1134.35 31.23,1125.14 32.82,1114.23 C33.24,1111.44 32.34,1108.46 32.11,1106.23 C34.04,1104.89 35.83,1103.67 37.61,1102.44 L35.75,1099.89 L31.81,1100.96 C31.38,1100.16 31.16,1099.04 30.48,1098.53 C21.12,1091.44 22.16,1080.1 19.48,1070.48 C18.31,1066.25 20.66,1061.05 21.62,1055.02 C18.11,1048.72 14.36,1040.49 9.22,1033.23 C4.89,1027.11 4.15,1021.99 7.92,1018.16 C6.05,1007.82 4.18,999.23 3.02,990.53 C1.92,982.32 1.65,973.99 0.88,965.72 C0.251059089,959.728811 1.81808868,953.712981 5.29,948.79 C10.47,941.09 14.66,932.69 23.58,927.35 C20.65,915.19 32.03,908.54 35.24,898.45 C45.24,896.09 44.17,884.87 50.42,879.24 C53.25,876.69 53.22,871.24 55.29,867.49 C57.83,862.94 61.63,859.09 64.13,854.49 C68.39,846.73 75.33,841.29 80.25,833.49 L74.25,835.99 C73.77,833.99 73.36,832.2 72.82,829.92 C73.7262924,829.702177 74.6590035,829.61463 75.59,829.66 C78.11,830.31 81.48,832.01 81.7,827.83 C81.83,825.37 79.18,824.38 75.9,824.44 C67.38,824.62 65.05,819.07 70.53,809.16 L75.53,820.36 C77.99,821.25 80.99,819.6 79.53,816.87 C76.91,812.09 79.53,808.68 81.01,804.42 C79.86,803.2 78.84,801.97 77.67,800.9 C76.5,799.83 75.09,798.9 73.34,797.49 L89.47,776.49 C89.99,781.49 90.27,784.19 90.54,786.86 L92.04,787.18 C92.94,782.47 94.64,777.75 94.57,773.05 C94.47,766.86 97.39,762.51 102.34,760.89 C111.34,757.89 114.95,749.89 120.88,744.02 C122.46,742.45 123.95,740.16 125.88,739.65 C132.37,737.93 136.5,731.65 143.54,731.07 C146.078678,730.675821 148.53906,729.882694 150.83,728.72 C152.57,727.97 155.36,726.9 155.52,725.72 C156.79,716.14 165.58,716.61 171.45,713.22 C172.678637,712.573142 173.837988,711.802476 174.91,710.92 C176.34,709.65 177.45,707.15 178.91,706.92 C189.01,705.62 193.16,696.08 200.85,691.63 C206.01,688.63 211.14,685.99 214.09,680.42 C214.903273,679.353369 216.132733,678.684077 217.47,678.58 C229.23,677.69 237.09,669.89 244.9,662.58 C249.504225,658.356634 255.036131,655.273838 261.05,653.58 C268.3,651.34 275.17,649.11 280.33,642.58 C282.85,639.41 287.91,638.25 293.02,635.58 C293.55,630.66 298.37,627.84 303.63,624.41 C310.63,619.84 319.17,618.8 325.69,613.98 C335.21,606.92 344.16,599.06 353.14,591.29 C363.53,582.29 372.49,572.06 380.94,561.09 C388.06,551.85 399.28,547.09 410.66,543.77 C412.5,543.24 414.75,542.85 415.95,541.58 C425.03,531.97 437.25,527.11 447.95,519.9 C451.68,517.37 454.95,514.22 458.95,511.02 L464.55,512.52 L464.55,503.12 L467.97,507.05 C470.97,502.81 470.97,502.81 465.18,498.79 C465.93,496 466.71,493.13 467.63,489.79 C475.27,486.04 483.48,482.61 490.98,478.01 C493.98,476.2 495.32,471.79 497.57,468.32 L502.65,471.74 C502.11,468.19 501.75,465.83 501.32,463.06 C506.72,460.13 510.32,455.95 511.11,449.38 C511.37,447.11 513.39,444.69 515.24,443.04 C519.8,438.97 524.83,435.43 529.43,431.39 C530.66,430.31 531.33,428.29 531.7,426.58 C532.76,421.79 533.08,416.7 538.23,414.07 C538.54,417.58 537.94,421.39 542.7,423.61 C541.753333,420.03 540.9,416.406667 540.14,412.74 Z M716.64,492.52 C717.36,495.52 718.45,498.03 722.58,497.52 C722.84,496.25 723.07,495.05 723.39,493.46 L716.31,492.86 C713.91,488.52 713.91,488.52 708.45,494.98 L716.64,492.52 Z M772.76,1788.19 L772.76,1783.77 L764.93,1788.64 C765.83,1790.74 766.55,1792.39 767.29,1794.11 L773.07,1787.85 L775.07,1797.47 L781.67,1787.09 C777.77,1787.56 775.27,1787.86 772.76,1788.19 Z M723.68,1754.68 C726.46,1757.75 729.11,1762 733.88,1760.16 C736.17,1759.27 737.48,1755.85 739.24,1753.58 L737.81,1751.4 C733.103333,1752.48667 728.393333,1753.58667 723.68,1754.7 L719.25,1766 C724.67,1763.1 724.67,1763.1 723.68,1754.68 Z M551,1790.79 L544.06,1784.79 C543.62,1781.61 543.24,1778.42 542.7,1775.25 C542.16,1772.08 541.49,1769.25 540.87,1766.25 C538.74,1771.25 536.96,1775.41 530.09,1776.35 C539.66,1777.93 534.9,1784.77 536.71,1789.23 C539.21,1787.72333 541.666667,1786.25333 544.08,1784.82 L544.08,1805.35 L546.28,1805.66 C547.753333,1800.61333 549.216667,1795.55667 550.67,1790.49 L562.43,1786.49 C560.67,1782.99 562.43,1776.41 554.82,1778.4 C553.553333,1782.48667 552.28,1786.61667 551,1790.79 Z M171.06,1572.35 L171.06,1588 C177.69,1586.08 174.56,1581.5 175.67,1578.51 C177.44,1573.76 174.84,1572.62 170.85,1572.59 C171.57,1569.59 172.99,1566.65 172.85,1563.75 C172.64,1560.34 171.05,1557.02 170.06,1553.65 L180.46,1555.98 C178.23,1552.72 177.02,1549.17 175.46,1548.98 C169.02,1548.32 168.75,1543.37 167.53,1539.06 C166.53,1535.67 166.06,1532.16 165.29,1528.42 L160.04,1530.93 C157.31,1518.49 154.66,1506.43 152.04,1494.37 L149.84,1494.6 C149.69,1496.32 149.84,1498.18 149.3,1499.74 C148.57,1501.66 147.18,1503.33 145.77,1505.61 C147.95,1506.42 149.31,1506.61 150.27,1507.37 C151.23,1508.13 151.57,1509.26 152.27,1510.37 C142.93,1514.6 142.93,1514.6 144.46,1527.29 C146.25,1522.85 147.3,1520.21 148.46,1517.23 L153.05,1519.29 L147.17,1531.55 C153.17,1537.37667 159.17,1543.19 165.17,1548.99 C166.9,1550.66 168.62,1552.32 170.41,1553.99 C169.171604,1555.03599 168.039452,1556.20164 167.03,1557.47 C163.22,1563.23 165.18,1570.24 171.06,1572.35 Z M117.35,1429 C115.9,1432.52 114.44,1436 113.01,1439.51 C122.6,1443.92 123.09,1445.04 122.6,1453.98 C122.3,1459.46 125.36,1458.55 130.09,1456.38 C125.67,1446.87 121.5,1437.88 117.37,1428.95 C124.8,1429.29 122.28,1439.22 129.84,1441.28 C128.75,1434.55 127.79,1428.65 126.51,1420.83 L117.35,1429 Z M136.93,1486.45 C134.64,1481.53 130.86,1484.11 127.66,1483.8 L127.39,1486.05 L137.1,1486.26 L131.02,1493.26 L141.9,1495.48 C152.67,1490.08 144.06,1480.31 146.24,1472.74 C146.34,1472.39 145.52,1471.74 144.78,1470.85 L138.93,1473.48 C142.34,1479.99 142.34,1479.99 139.55,1487.06 L136.93,1486.45 Z M738.08,1813.03 L746.85,1810.66 C748.34,1813.24 749.58,1815.46 750.94,1817.66 C751.1,1817.9 751.94,1817.66 752.94,1817.66 C753.26,1814.81 753.57,1811.99 753.89,1809.16 L752.25,1810.16 L746.48,1803.54 L750.96,1796.54 C748.07,1797.19 745.65,1797.04 745.15,1797.95 C742.73,1802.4 740.81,1807.1 738.08,1813.07 L738.08,1813.03 Z M781.48,1766.77 C774.17,1767.16 768.48,1766.91 762.97,1767.99 C760.53,1768.47 758.03,1771.43 760.72,1775.86 C766.2,1772.12 772.02,1771.96 777.91,1775.73 C779,1773 779.86,1770.89 781.48,1766.81 L781.48,1766.77 Z M767.23,1805.07 L760.23,1815.37 C769.68,1816.49 772.23,1815.12 776.62,1806.22 C774.62,1806.71 773.18,1807.48 771.87,1807.28 C770.37,1807.08 769,1806 767.23,1805.11 L767.23,1805.07 Z M487.91,1808.13 L494.66,1797.93 L488.66,1793.75 L484.03,1802.54 L487.91,1808.13 Z M816.71,1801.35 L827.23,1801.88 C829.74,1797.41 827.87,1794.7 823.47,1792.65 L816.71,1801.35 Z M524.13,1802.35 L517.13,1790.86 C518.2,1801.91 518.2,1801.91 524.13,1802.44 L524.13,1802.35 Z M382.29,1808.61 C388.01,1800.77 388.03,1800.61 384.29,1794.49 C383.7,1799 383.14,1802.87 382.29,1808.7 L382.29,1808.61 Z M182.51,1602.13 C185.68,1594.24 185.68,1594.24 180.68,1591.54 C181.36,1595.46 181.93,1598.8 182.51,1602.13 Z M202.02,1602.33 L193.74,1606.33 L203.59,1609.92 L202.02,1602.33 Z M852.74,1788.49 C845.53,1785.69 845.53,1785.69 843.74,1791.67 L852.74,1788.49 Z M262.54,1708.94 C262.01,1714.11 264.2,1716.48 267.48,1718.62 C270.86,1712.67 265.6,1712.06 262.54,1708.94 L262.54,1708.94 Z M602.15,1788.94 L599.83,1789.04 C598.89,1792.14 597.98,1795.24 602.15,1798.96 L602.15,1788.94 Z M786.9,1782.94 C790.45,1782.94 792.9,1782.21 791.9,1778.43 C791.64,1777.43 790.11,1776.04 789.3,1776.12 C785.27,1776.59 786.28,1779.51 786.9,1783 L786.9,1782.94 Z M577,1786.38 C580,1781.81 577.91,1779.23 576.5,1774.33 C574.14,1779.5 572.77,1782.38 577,1786.38 Z M423.54,1787.08 L430.96,1790.14 C430.74,1787.35 430.61,1785.68 430.41,1783.14 L423.54,1787.08 Z M178.85,1579.86 C185.85,1581.33 185.85,1581.33 185.6,1576.13 L178.85,1579.86 Z M863.21,1766.19 C865.21,1762.51 865.07,1760.36 862.04,1759.25 C861.6,1759.09 859.96,1760.6 860.04,1760.79 C861.000469,1762.64477 862.058621,1764.4473 863.21,1766.19 L863.21,1766.19 Z M750.51,1778.57 L749.4,1778.41 L747.09,1786.95 L749.57,1787.36 C749.88,1784.43 750.2,1781.5 750.51,1778.57 Z M706.09,1770.09 C702.26,1772.37 702.58,1775.56 704.09,1779 L706.09,1770.09 Z M630.56,1772.54 L629.18,1771 C627.71,1773.56 622.18,1772.23 623.34,1778.21 L630.56,1772.54 Z M706.28,1792.54 L703.78,1791.84 C703.314974,1792.66645 702.942714,1793.54176 702.67,1794.45 C702.569818,1795.50095 702.569818,1796.55905 702.67,1797.61 L704.84,1797.97 C705.3,1796.16333 705.78,1794.35333 706.28,1792.54 L706.28,1792.54 Z M110.82,1342 L108.91,1341.61 C108.33,1344.14333 107.746667,1346.67333 107.16,1349.2 L109.48,1349.67 C109.93,1347.12 110.37,1344.56 110.82,1342 Z M856.36,1778.65 L854.2,1779.77 L856.99,1786.6 L858.53,1786.07 L856.36,1778.65 Z M1796.82,457.05 C1796.92,457.44 1797.01,457.83 1797.1,458.23 L1801.5,457.55 L1800.84,455.31 L1796.82,457.05 Z M815.39,1768.18 L816,1768.18 L816,1760.85 L815.41,1760.85 L815.39,1768.18 Z M673.39,1756.63 L673.26,1754.49 L668.56,1755.32 C668.56,1755.62 668.61,1755.91 668.63,1756.21 L673.39,1756.63 Z M1014.3,1801.86 L1011.99,1801.08 C1011.57,1803.13333 1011.14333,1805.17667 1010.71,1807.21 L1012.18,1807.6 C1012.85,1805.69 1013.55,1803.77 1014.26,1801.86 L1014.3,1801.86 Z M972.38,1816.53 L974.59,1815.31 L971.68,1810.91 C971.19,1811.24 970.23,1811.75 970.28,1811.91 C970.85,1813.46 971.61,1815 972.34,1816.53 L972.38,1816.53 Z" id="Shape"></path>
            <path d="M222.41,1651.66 C222.26,1652.59 222.41,1654.1 221.92,1654.35 C217.42,1656.6 217.47,1658.98 220.98,1662.35 C222.47,1663.77 223.08,1666.13 224.37,1668.58 C219.61,1670.26 216.79,1668.36 215.09,1665.11 C213.28,1661.66 216.09,1655.5 220.01,1653.11 C220.870532,1652.67905 221.755353,1652.29841 222.66,1651.97 L222.41,1651.66 Z" id="Path"></path>
            <path d="M711.45,1816.15 C716.2,1824.62 716.08,1824.84 705.91,1827.29 C702.75,1821.47 705.31,1818.33 711.45,1816.15 Z" id="Path"></path>
            <path d="M2076.44,720 C2079.3,718.39 2080.77,713.22 2086.05,716.44 C2084.06,721.66 2079.89,719.89 2076.44,720 Z" id="Path"></path>
            <path d="M212.24,1653.31 C209.24,1656.37 209.24,1656.37 204.95,1651.79 L212.24,1653.31 Z" id="Path"></path>
            <path d="M2115.91,859.58 L2112.33,850.5 C2115.61,851.67 2117.46,852.34 2121.22,853.7 L2115.91,859.58 Z" id="Path"></path>
            <path d="M540.14,412.74 C540.9,416.4 541.663333,420.066667 542.43,423.74 C537.67,421.52 538.27,417.74 537.96,414.2 L540.14,412.74 Z" id="Path"></path>
            <path d="M584.56,1800.45 C583.47,1796.57 583.47,1796.57 587.93,1791.2 C590.1,1794.39 588.1,1796.54 586.51,1798.76 L584.56,1800.45 Z" id="Path"></path>
            <path d="M2102.42,917.22 C2103.59,918.22 2104.66,918.9 2105.2,919.84 C2105.46,920.29 2104.73,921.31 2104.45,922.07 C2103.25247,921.436301 2102.09977,920.721294 2101,919.93 C2101.39557,918.988004 2101.87061,918.081397 2102.42,917.22 L2102.42,917.22 Z" id="Path"></path>
            <path d="M2106,868.27 L2113.51,860.9 C2113.37,866.48 2109.01,867.18 2107.57,869.97 L2106,868.27 Z" id="Path"></path>
            <polygon id="Path" points="68.9 809.41 70.22 803.16 76.1 805.16"></polygon>
            <path d="M618.21,1823.44 L611.38,1820.44 C616.13,1816.71 617.17,1820.86 619.38,1821.07 C619,1821.83 618.61,1822.64 618.21,1823.44 Z" id="Path"></path>
            <path d="M734.64,1778.27 C735.07,1780.7 735.49,1783.13 736.03,1786.19 C734.56,1786.19 732.7,1786.62 732.41,1786.13 C730.46,1782.83 731.64,1780.25 734.85,1778.44 L734.64,1778.27 Z" id="Path"></path>
            <polygon id="Path" points="190.05 1619.09 190.6 1625.15 188.77 1625.32 188.05 1619.32"></polygon>
            <path d="M1358,1865.55 L1357.75,1870.55 C1356.92885,1870.49597 1356.11107,1870.39917 1355.3,1870.26 C1355.3,1868.61 1355.55,1866.96 1355.73,1865.26 L1358,1865.55 Z" id="Path"></path>
            <path d="M66.7,835.83 C66.45,837.23 66.19,838.63 65.94,840.03 L63.66,839.33 C64.19,838.02 64.73,836.71 65.27,835.4 L66.7,835.83 Z" id="Path"></path>
            <path d="M2115.45,834.36 C2114.45,833.1 2113.5,832.43 2113.53,831.8 C2113.64208,830.874279 2114.13493,830.037162 2114.89,829.49 C2115.22,829.27 2116.89,830.19 2116.89,830.4 C2116.5325,831.761382 2116.05047,833.086973 2115.45,834.36 L2115.45,834.36 Z" id="Path"></path>
            <path d="M170.34,1553.91 L165.16,1548.91 C159.16,1543.11 153.16,1537.29667 147.16,1531.47 L153.04,1519.21 L148.45,1517.15 C147.25,1520.15 146.2,1522.77 144.45,1527.21 C142.92,1514.52 142.92,1514.52 152.26,1510.29 C151.58,1509.23 151.14,1508.01 150.26,1507.29 C149.38,1506.57 147.94,1506.34 145.76,1505.53 C147.17,1503.25 148.56,1501.58 149.29,1499.66 C149.88,1498.1 149.68,1496.24 149.83,1494.52 L152.03,1494.29 C154.67,1506.35 157.32,1518.41 160.03,1530.85 L165.28,1528.34 C166.05,1532.08 166.56,1535.59 167.52,1538.98 C168.74,1543.29 169.01,1548.24 175.45,1548.9 C177.02,1549.07 178.23,1552.62 180.45,1555.9 C175.55,1554.8 172.8,1554.19 170.08,1553.6 L170.34,1553.91 Z" id="Path"></path>
            <path d="M136.93,1486.49 L139.55,1487.11 C142.34,1480.04 142.34,1480.04 138.93,1473.53 L144.78,1470.9 C145.52,1471.83 146.34,1472.44 146.24,1472.79 C144.06,1480.36 152.67,1490.13 141.9,1495.53 L131,1493.31 L137.08,1486.31 L136.93,1486.49 Z" id="Path"></path>
            <path d="M544.12,1784.71 L536.71,1789.17 C534.9,1784.71 539.66,1777.87 530.09,1776.29 C536.96,1775.35 538.74,1771.17 540.87,1766.19 C541.49,1769.19 542.18,1772.19 542.7,1775.19 C543.22,1778.19 543.62,1781.55 544.06,1784.73 L544.12,1784.71 Z" id="Path"></path>
            <path d="M738.08,1813.07 C740.81,1807.07 742.73,1802.4 745.16,1797.97 C745.66,1797.06 748.08,1797.21 750.97,1796.56 L746.49,1803.56 L752.26,1810.18 L753.9,1809.18 C753.58,1812.01 753.27,1814.83 752.95,1817.68 C751.95,1817.68 751.1,1817.89 750.95,1817.68 C749.59,1815.53 748.35,1813.31 746.86,1810.68 L738.08,1813.07 Z" id="Path"></path>
            <path d="M781.48,1766.81 C779.86,1770.89 779.02,1772.98 777.91,1775.81 C772.02,1772.04 766.2,1772.2 760.72,1775.94 C758.03,1771.51 760.53,1768.55 762.97,1768.07 C768.44,1767 774.17,1767.2 781.48,1766.81 Z" id="Path"></path>
            <path d="M117.33,1428.93 C121.5,1437.93 125.67,1446.93 130.09,1456.42 C125.36,1458.59 122.3,1459.5 122.6,1454.02 C123.09,1445.08 122.6,1443.96 113.01,1439.55 C114.44,1436.07 115.9,1432.55 117.35,1429.04 L117.33,1428.93 Z" id="Path"></path>
            <path d="M767.23,1805.11 C768.98,1805.98 770.37,1807.11 771.89,1807.32 C773.2,1807.52 774.66,1806.75 776.64,1806.26 C772.26,1815.16 769.7,1816.53 760.25,1815.41 L767.23,1805.11 Z" id="Path"></path>
            <path d="M171.06,1572.35 C165.18,1570.24 163.22,1563.23 167.06,1557.44 C168.071913,1556.17739 169.192897,1555.00621 170.41,1553.94 L170.09,1553.64 C171.09,1556.98 172.64,1560.3 172.85,1563.71 C173.03,1566.61 171.61,1569.6 170.85,1572.55 L171.06,1572.35 Z" id="Path"></path>
            <path d="M117.35,1429 L126.51,1420.83 C127.79,1428.65 128.75,1434.55 129.84,1441.28 C122.28,1439.22 124.84,1429.28 117.35,1428.92 C117.33,1428.93 117.35,1429 117.35,1429 Z" id="Path"></path>
            <path d="M544.06,1784.74 L551,1790.74 L550.67,1790.39 C549.21,1795.45 547.746667,1800.50333 546.28,1805.55 L544.08,1805.24 C544.08,1798.4 544.08,1791.54667 544.08,1784.68 C544.08,1784.68 544.06,1784.74 544.06,1784.74 Z" id="Path"></path>
            <path d="M723.68,1754.69 L737.81,1751.4 L739.24,1753.58 C737.48,1755.85 736.17,1759.27 733.88,1760.16 C729.11,1762 726.46,1757.75 723.68,1754.68 L723.68,1754.69 Z" id="Path"></path>
            <path d="M551,1790.79 C552.266667,1786.61667 553.54,1782.46 554.82,1778.32 C562.41,1776.32 560.67,1782.91 562.43,1786.41 C558.503333,1787.74333 554.583333,1789.07667 550.67,1790.41 L551,1790.79 Z" id="Path"></path>
            <polygon id="Path" points="487.91 1808.17 484 1802.58 488.63 1793.79 494.63 1797.97"></polygon>
            <path d="M170.85,1572.55 C174.85,1572.55 177.44,1573.72 175.67,1578.47 C174.56,1581.47 177.67,1586.04 171.06,1587.96 L171.06,1572.35 L170.85,1572.55 Z" id="Path"></path>
            <path d="M816.71,1801.39 L823.47,1792.69 C827.87,1794.69 829.74,1797.45 827.23,1801.92 L816.71,1801.39 Z" id="Path"></path>
            <path d="M524.13,1802.44 C518.2,1801.91 518.2,1801.91 517.13,1790.95 L524.13,1802.44 Z" id="Path"></path>
            <polygon id="Path" points="772.77 1788.17 781.64 1787.09 775.04 1797.47 773.04 1787.85"></polygon>
            <path d="M382.29,1808.7 C383.14,1802.87 383.7,1799 384.29,1794.58 C388,1800.66 388,1800.86 382.29,1808.7 Z" id="Path"></path>
            <path d="M138.36,1507.51 L142.36,1500.51 L144.05,1500.83 C144.29,1503.98 144.54,1507.13 144.97,1512.62 C141.41,1509.82 139.81,1508.62 138.19,1507.28 L138.36,1507.51 Z" id="Path"></path>
            <path d="M182.51,1602.13 C181.93,1598.8 181.36,1595.46 180.68,1591.54 C185.68,1594.24 185.68,1594.24 182.51,1602.13 Z" id="Path"></path>
            <polygon id="Path" points="202 1602.33 203.57 1609.96 193.72 1606.37"></polygon>
            <path d="M852.74,1788.49 L843.74,1791.67 C845.53,1785.69 845.53,1785.69 852.74,1788.49 Z" id="Path"></path>
            <path d="M262.54,1708.94 C265.6,1712.06 270.86,1712.67 267.48,1718.62 C264.2,1716.48 262,1714.11 262.54,1708.94 Z" id="Path"></path>
            <path d="M602.15,1789 L602.15,1799 C597.98,1795.28 598.89,1792.18 599.83,1789.08 L602.15,1789 Z" id="Path"></path>
            <path d="M773.07,1787.85 L767.29,1794.11 C766.55,1792.39 765.83,1790.74 764.93,1788.64 L772.76,1783.77 L772.76,1788.18 L773.07,1787.85 Z" id="Path"></path>
            <path d="M786.9,1783 C786.28,1779.54 785.27,1776.62 789.32,1776.18 C790.13,1776.1 791.66,1777.52 791.92,1778.49 C792.91,1782.24 790.45,1783 786.9,1783 Z" id="Path"></path>
            <path d="M577,1786.38 C572.8,1782.38 574.17,1779.5 576.5,1774.33 C577.88,1779.23 580,1781.81 577,1786.38 Z" id="Path"></path>
            <path d="M625,1806 C620.51,1808.81 619.81,1804.67 617.95,1802.3 C623.95,1801.41 623.95,1801.41 624.73,1806.3 L625,1806 Z" id="Path"></path>
            <path d="M716.63,492.52 L708.45,495 C713.91,488.54 713.91,488.54 716.31,492.88 L716.63,492.52 Z" id="Path"></path>
            <path d="M423.51,1787.08 L430.38,1783.18 C430.58,1785.68 430.71,1787.35 430.93,1790.18 L423.51,1787.08 Z" id="Path"></path>
            <path d="M723.68,1754.68 C724.68,1763.1 724.68,1763.1 719.25,1766.02 L723.68,1754.7 L723.68,1754.68 Z" id="Path"></path>
            <path d="M178.85,1579.86 L185.6,1576.13 C185.88,1581.33 185.88,1581.33 178.85,1579.86 Z" id="Path"></path>
            <path d="M716.31,492.84 L723.39,493.44 C723.07,495.03 722.84,496.23 722.58,497.5 C718.45,498.03 717.36,495.5 716.64,492.5 L716.31,492.84 Z" id="Path"></path>
            <path d="M863.21,1766.19 C862.058621,1764.4473 861.000469,1762.64477 860.04,1760.79 C859.96,1760.6 861.6,1759.09 862.04,1759.25 C865.07,1760.36 865.25,1762.51 863.21,1766.19 Z" id="Path"></path>
            <path d="M750.51,1778.57 C750.2,1781.5 749.88,1784.43 749.57,1787.36 L747.09,1786.95 L749.4,1778.41 L750.51,1778.57 Z" id="Path"></path>
            <path d="M706.09,1770.09 L704.09,1779 C702.58,1775.56 702.26,1772.37 706.09,1770.09 Z" id="Path"></path>
            <path d="M630.56,1772.54 L623.34,1778.21 C622.18,1772.21 627.71,1773.56 629.18,1771 L630.56,1772.54 Z" id="Path"></path>
            <path d="M706.28,1792.54 C705.78,1794.34667 705.283333,1796.15667 704.79,1797.97 L702.62,1797.61 C702.519818,1796.55905 702.519818,1795.50095 702.62,1794.45 C702.892714,1793.54176 703.264974,1792.66645 703.73,1791.84 L706.28,1792.54 Z" id="Path"></path>
            <path d="M137.1,1486.3 L127.39,1486.09 L127.66,1483.84 C130.86,1484.15 134.66,1481.57 136.93,1486.49 L137.1,1486.3 Z" id="Path"></path>
            <path d="M110.82,1342 C110.37,1344.55 109.93,1347.11 109.48,1349.67 L107.16,1349.2 C107.753333,1346.66667 108.336667,1344.13667 108.91,1341.61 L110.82,1342 Z" id="Path"></path>
            <polygon id="Path" points="856.36 1778.66 858.53 1786.08 856.99 1786.61 854.2 1779.78"></polygon>
            <path d="M1796.82,457.06 L1800.82,455.32 L1801.48,457.56 L1797.08,458.24 C1797,457.84 1796.92,457.45 1796.82,457.06 Z" id="Path"></path>
            <polygon id="Path" points="815.39 1768.18 815.39 1760.85 816 1760.85 816 1768.18"></polygon>
            <path d="M673.35,1756.63 L668.59,1756.21 C668.59,1755.91 668.54,1755.62 668.52,1755.32 L673.22,1754.49 L673.35,1756.63 Z" id="Path"></path>
            <path d="M1014.26,1801.86 C1013.55,1803.77 1012.85,1805.69 1012.14,1807.6 L1010.67,1807.21 C1011.09667,1805.17 1011.52333,1803.12667 1011.95,1801.08 L1014.26,1801.86 Z" id="Path"></path>
            <path d="M972.34,1816.53 C971.61,1814.99 970.85,1813.46 970.24,1811.87 C970.24,1811.75 971.15,1811.24 971.64,1810.87 L974.55,1815.27 L972.34,1816.53 Z" id="Path"></path>
        </g>
    </g>
</svg>